<svg height="430pt" viewBox="0 -109 430.08 430" width="430pt" xmlns="http://www.w3.org/2000/svg"><path d="m58.714844 35.195312 63.144531-1.4375 22.816406-6.152343 53.191407.605469 26.09375-21.34375 47.179687.367187 43.257813 26.851563 66.820312.613281-3.953125 89.476562-45.039063-.65625-39.457031 16.511719 12.875 16.152344-105.625 49.929687-93.140625-82.996093-52.265625-.652344zm0 0" fill="#d7e9ff" fill-rule="evenodd"/><path d="m200.019531 212.941406c-1.640625 0-3.265625-.59375-4.539062-1.730468l-91.234375-81.296876-49.71875-.621093c-1.847656-.027344-3.613282-.800781-4.878906-2.148438-1.273438-1.34375-1.941407-3.152343-1.855469-5l4.101562-87.273437c.164063-3.582032 3.078125-6.425782 6.664063-6.503906l62.320312-1.414063 22.011719-5.941406c.609375-.160157 1.253906-.246094 1.863281-.230469l50.710938.578125 24.175781-19.78125c1.234375-1 2.914063-1.316406 4.371094-1.5390625l47.179687.3671875c1.253906.007812 2.480469.367188 3.546875 1.027344l41.636719 25.847656 64.90625.59375c1.851562.019531 3.617188.789062 4.890625 2.128906 1.273437 1.34375 1.949219 3.152344 1.867187 5l-3.953124 89.472656c-.167969 3.6875-3.332032 6.847657-6.917969 6.527344l-43.617188-.632812-29.8125 12.472656 7.246094 9.09375c1.300781 1.625 1.78125 3.765625 1.308594 5.796875-.464844 2.027344-1.847657 3.734375-3.726563 4.628906l-105.625 49.921875c-.933594.441406-1.929687.65625-2.921875.65625zm-138.253906-97.214844 45.199219.566407c1.648437.019531 3.226562.632812 4.453125 1.726562l89.765625 79.992188 93.75-44.3125-7.5-9.414063c-1.335938-1.671875-1.808594-3.875-1.273438-5.945312.53125-2.070313 2.003906-3.78125 3.976563-4.605469l39.453125-16.515625c.867187-.359375 1.875-.53125 2.734375-.527344l38.414062.5625 3.347657-75.792968-59.746094-.546876c-1.253906-.015624-2.480469-.367187-3.539063-1.027343l-41.636719-25.84375-42.792968-.332031-24.1875 19.789062c-1.238282 1.007812-2.699219 1.640625-4.398438 1.539062l-52.246094-.59375-21.898437 5.90625c-.535156.140626-1.082031.21875-1.628906.234376l-56.78125 1.285156zm0 0" fill="#0e65e5"/><path d="m61.445312 123.019531 46.792969-.136719 83.207031 74.195313c5.617188 5.007813 15.765626 6.632813 22.695313 3.621094l83.222656-36.195313c6.917969-3.007812 8.371094-9.867187 3.175781-15.398437l-72.144531-76.816407-41.164062 29.0625c-9.25 6.53125-23.011719 5.136719-30.753907-3.128906l3.933594 4.199219c-7.730468-8.261719-7.863281-21.757813-.289062-30.148437l58.289062-64.570313 54.507813-.542969 42.265625 27.09375 54.636718-.125" fill="#d7e9ff"/><path d="m206.179688 209.0625c-7.046876 0-14.277344-2.429688-19.277344-6.894531l-81.253906-72.453125-44.179688.132812c-.007812 0-.015625 0-.023438 0-3.757812 0-6.8125-3.039062-6.824218-6.804687-.015625-3.769531 3.03125-6.835938 6.804687-6.847657l46.792969-.140624h.019531c1.675781 0 3.296875.613281 4.542969 1.734374l83.207031 74.191407c3.617188 3.234375 10.964844 4.386719 15.425781 2.457031l83.234376-36.195312c1.199218-.527344 2.03125-1.246094 2.160156-1.878907.132812-.640625-.347656-1.628906-1.246094-2.589843l-68.074219-72.484376-36.3125 25.644532c-9.121093 6.433594-21.238281 7.011718-30.992187 2.308594-1.746094-.0625-3.46875-.78125-4.746094-2.15625l-3.933594-4.199219c-1.347656-1.433594-1.957031-3.300781-1.835937-5.113281-3.757813-10-1.976563-21.90625 5.394531-30.074219l58.285156-64.570313c1.28125-1.421875 3.09375-2.234375 5-2.253906l54.507813-.539062c1.273437.050781 2.632812.367187 3.753906 1.078124l40.574219 26.007813 52.632812-.121094h.011719c3.761719 0 6.820313 3.046875 6.828125 6.816407.007812 3.765624-3.039062 6.832031-6.8125 6.839843l-54.640625.125s-.007813 0-.015625 0c-1.304688 0-2.585938-.375-3.683594-1.082031l-40.546875-25.992188-49.480469.488282-56.28125 62.351562c-4.515624 4.996094-5 12.949219-1.527343 18.628906 5.597656 3.992188 13.980469 4.285157 19.632812.300782l41.160157-29.0625c2.78125-1.957032 6.574218-1.585938 8.914062.902344l72.140625 76.8125c4.015625 4.273437 5.714844 9.625 4.664063 14.683593-1.042969 5.070313-4.71875 9.316407-10.089844 11.648438l-83.230469 36.191406c-3.265625 1.417969-6.945313 2.109375-10.679687 2.109375zm0 0" fill="#0e65e5"/><path d="m233.222656 190.777344-34.542968-29.121094" fill="#d7e9ff"/><path d="m233.210938 197.605469c-1.550782 0-3.109376-.527344-4.390626-1.605469l-34.539062-29.125c-2.882812-2.433594-3.246094-6.738281-.820312-9.621094 2.433593-2.878906 6.734374-3.253906 9.621093-.820312l34.539063 29.128906c2.878906 2.433594 3.246094 6.738281.820312 9.621094-1.355468 1.597656-3.28125 2.421875-5.230468 2.421875zm0 0" fill="#0e65e5"/><path d="m257.921875 179.019531-31.730469-28.488281" fill="#d7e9ff"/><path d="m257.921875 185.847656c-1.628906 0-3.261719-.574218-4.5625-1.746094l-31.726563-28.488281c-2.808593-2.519531-3.039062-6.832031-.519531-9.636719 2.519531-2.800781 6.851563-3.039062 9.636719-.523437l31.726562 28.488281c2.808594 2.519532 3.042969 6.832032.523438 9.636719-1.347656 1.503906-3.214844 2.269531-5.078125 2.269531zm0 0" fill="#0e65e5"/><path d="m102.398438 61.753906h-40.957032c-3.773437 0-6.828125-3.054687-6.828125-6.828125 0-3.773437 3.054688-6.824219 6.828125-6.824219h40.957032c3.773437 0 6.828124 3.050782 6.828124 6.824219 0 3.773438-3.054687 6.828125-6.828124 6.828125zm0 0" fill="#fff"/><path d="m284.894531 167.320312-34.332031-30.773437" fill="#d7e9ff"/><path d="m284.894531 174.148438c-1.628906 0-3.253906-.574219-4.5625-1.746094l-34.324219-30.773438c-2.808593-2.515625-3.039062-6.828125-.519531-9.640625 2.519531-2.800781 6.832031-3.039062 9.636719-.519531l34.328125 30.773438c2.808594 2.511718 3.039063 6.824218.519531 9.636718-1.347656 1.5-3.207031 2.269532-5.078125 2.269532zm0 0" fill="#0e65e5"/><path d="m6.828125 13.964844h54.613281v129.707031h-54.613281zm0 0" fill="#5c9eff" fill-rule="evenodd"/><path d="m61.441406 150.5h-54.613281c-3.773437 0-6.828125-3.054688-6.828125-6.828125v-129.707031c0-3.773438 3.054688-6.824219 6.828125-6.824219h54.613281c3.773438 0 6.824219 3.050781 6.824219 6.824219v129.707031c0 3.773437-3.050781 6.828125-6.824219 6.828125zm-47.789062-13.652344h40.960937v-116.054687h-40.960937zm0 0" fill="#0e65e5"/><path d="m40.960938 116.367188c0 3.769531-3.058594 6.824218-6.828126 6.824218-3.769531 0-6.824218-3.054687-6.824218-6.824218 0-3.769532 3.054687-6.828126 6.824218-6.828126 3.769532 0 6.828126 3.058594 6.828126 6.828126zm0 0" fill="#d7e9ff" fill-rule="evenodd"/><path d="m34.132812 130.019531c-7.527343 0-13.652343-6.125-13.652343-13.652343 0-7.527344 6.125-13.652344 13.652343-13.652344 7.527344 0 13.652344 6.125 13.652344 13.652344 0 7.527343-6.125 13.652343-13.652344 13.652343zm0-13.667969v.015626zm0 0" fill="#0e65e5"/><path d="m368.640625 13.964844h54.613281v129.707031h-54.613281zm0 0" fill="#5c9eff" fill-rule="evenodd"/><g fill="#0e65e5"><path d="m423.253906 150.5h-54.613281c-3.773437 0-6.828125-3.054688-6.828125-6.828125v-129.707031c0-3.773438 3.054688-6.824219 6.828125-6.824219h54.613281c3.773438 0 6.824219 3.050781 6.824219 6.824219v129.707031c0 3.773437-3.050781 6.828125-6.824219 6.828125zm-47.789062-13.652344h40.960937v-116.054687h-40.960937zm0 0"/><path d="m368.640625 143.671875h54.613281v13.65625h-54.613281zm0 0" fill-rule="evenodd"/><path d="m423.253906 164.152344h-54.613281c-3.773437 0-6.828125-3.050782-6.828125-6.824219v-13.65625c0-3.773437 3.054688-6.824219 6.828125-6.824219h54.613281c3.773438 0 6.824219 3.050782 6.824219 6.824219v13.65625c0 3.773437-3.050781 6.824219-6.824219 6.824219zm-47.789062-13.652344h40.960937zm0 0"/><path d="m6.828125 143.671875h54.613281v13.65625h-54.613281zm0 0" fill-rule="evenodd"/><path d="m61.441406 164.152344h-54.613281c-3.773437 0-6.828125-3.050782-6.828125-6.824219v-13.65625c0-3.773437 3.054688-6.824219 6.828125-6.824219h54.613281c3.773438 0 6.824219 3.050782 6.824219 6.824219v13.65625c0 3.773437-3.050781 6.824219-6.824219 6.824219zm-47.789062-13.652344h40.960937zm0 0"/></g><path d="m402.773438 116.367188c0 3.769531-3.054688 6.824218-6.828126 6.824218-3.769531 0-6.824218-3.054687-6.824218-6.824218 0-3.769532 3.054687-6.828126 6.824218-6.828126 3.773438 0 6.828126 3.058594 6.828126 6.828126zm0 0" fill="#d7e9ff" fill-rule="evenodd"/><path d="m395.945312 130.019531c-7.523437 0-13.652343-6.125-13.652343-13.652343 0-7.527344 6.128906-13.652344 13.652343-13.652344 7.527344 0 13.65625 6.125 13.65625 13.652344 0 7.527343-6.128906 13.652343-13.65625 13.652343zm0-13.667969v.015626zm0 0" fill="#0e65e5"/><path d="m395.945312 89.058594c-3.773437 0-6.824218-3.050782-6.824218-6.824219v-27.308594c0-3.773437 3.050781-6.824219 6.824218-6.824219 3.773438 0 6.828126 3.050782 6.828126 6.824219v27.308594c0 3.773437-3.054688 6.824219-6.828126 6.824219zm0 0" fill="#fff"/><path d="m409.601562 75.40625h-27.308593c-3.773438 0-6.828125-3.054688-6.828125-6.828125s3.054687-6.824219 6.828125-6.824219h27.308593c3.773438 0 6.824219 3.050782 6.824219 6.824219s-3.050781 6.828125-6.824219 6.828125zm0 0" fill="#fff"/></svg>