<svg height="496pt" viewBox="0 0 496 496" width="496pt" xmlns="http://www.w3.org/2000/svg"><g fill="#57a4ff"><path d="m392 208c0 57.4375-46.5625 104-104 104s-104-46.5625-104-104 46.5625-104 104-104 104 46.5625 104 104zm0 0"/><path d="m288.097656 288c-19.722656.050781-38.765625-7.210938-53.441406-20.382812"/><path d="m128 416c0 26.507812-21.492188 48-48 48s-48-21.492188-48-48 21.492188-48 48-48 48 21.492188 48 48zm0 0"/><path d="m96 416c0 8.835938-7.164062 16-16 16s-16-7.164062-16-16 7.164062-16 16-16 16 7.164062 16 16zm0 0"/><path d="m46.078125 382.078125-16.957031-16.957031"/><path d="m130.878906 466.878906-16.957031-16.957031"/><path d="m130.878906 365.121094-16.957031 16.957031"/><path d="m46.078125 449.921875-16.957031 16.957031"/></g><path d="m488 152h-41.601562c-1.992188-5.566406-4.28125-11.027344-6.855469-16.351562l29.464843-29.472657c3.125-3.125 3.125-8.1875 0-11.3125l-67.871093-67.878906c-3.125-3.125-8.1875-3.125-11.3125 0l-29.472657 29.464844c-5.324218-2.570313-10.785156-4.855469-16.351562-6.847657v-41.601562c0-4.417969-3.582031-8-8-8h-96c-4.417969 0-8 3.582031-8 8v41.601562c-5.566406 1.992188-11.027344 4.28125-16.351562 6.855469l-29.472657-29.472656c-3.125-3.125-8.1875-3.125-11.3125 0l-67.878906 67.878906c-3.125 3.125-3.125 8.1875 0 11.3125l29.464844 29.472657c-2.570313 5.324218-4.855469 10.785156-6.847657 16.351562h-41.601562c-4.417969 0-8 3.582031-8 8v96c0 4.417969 3.582031 8 8 8h41.601562c1.992188 5.566406 4.28125 11.027344 6.855469 16.351562l-29.464843 29.472657c-3.125 3.125-3.125 8.1875 0 11.3125l67.878906 67.878906c3.125 3.125 8.1875 3.125 11.3125 0l29.472656-29.464844c5.324219 2.570313 10.777344 4.855469 16.34375 6.847657v41.601562c0 4.417969 3.582031 8 8 8h96c4.417969 0 8-3.582031 8-8v-41.601562c5.566406-1.992188 11.027344-4.28125 16.351562-6.855469l29.472657 29.464843c3.125 3.125 8.1875 3.125 11.3125 0l67.878906-67.878906c3.125-3.125 3.125-8.1875 0-11.3125l-29.464844-29.472656c2.570313-5.324219 4.855469-10.777344 6.847657-16.34375h41.601562c4.417969 0 8-3.582031 8-8v-96c0-4.417969-3.582031-8-8-8zm-8 96h-39.34375c-3.496094-.003906-6.589844 2.265625-7.640625 5.601562-2.691406 8.496094-6.136719 16.738282-10.296875 24.621094-1.617188 3.101563-1.03125 6.890625 1.441406 9.363282l27.886719 27.894531-56.566406 56.566406-27.894531-27.886719c-2.472657-2.472656-6.261719-3.058594-9.363282-1.441406-7.882812 4.160156-16.125 7.605469-24.621094 10.296875-3.335937 1.050781-5.605468 4.144531-5.601562 7.640625v39.34375h-80v-39.34375c.003906-3.496094-2.265625-6.589844-5.601562-7.640625-8.496094-2.691406-16.738282-6.136719-24.621094-10.296875-3.101563-1.617188-6.890625-1.03125-9.363282 1.441406l-27.894531 27.886719-56.566406-56.566406 27.886719-27.894531c2.472656-2.472657 3.058594-6.261719 1.441406-9.363282-4.160156-7.882812-7.605469-16.125-10.296875-24.621094-1.050781-3.335937-4.144531-5.605468-7.640625-5.601562h-39.34375v-80h39.34375c3.496094.003906 6.589844-2.265625 7.640625-5.601562 2.691406-8.496094 6.136719-16.738282 10.296875-24.621094 1.617188-3.101563 1.03125-6.890625-1.441406-9.363282l-27.886719-27.894531 56.566406-56.566406 27.894531 27.886719c2.472657 2.472656 6.261719 3.058594 9.363282 1.441406 7.882812-4.160156 16.125-7.605469 24.621094-10.296875 3.335937-1.050781 5.605468-4.144531 5.601562-7.640625v-39.34375h80v39.34375c-.003906 3.496094 2.265625 6.589844 5.601562 7.640625 8.496094 2.691406 16.738282 6.136719 24.621094 10.296875 3.101563 1.617188 6.890625 1.03125 9.363282-1.441406l27.894531-27.886719 56.566406 56.566406-27.886719 27.894531c-2.472656 2.472657-3.058594 6.261719-1.441406 9.363282 4.160156 7.882812 7.605469 16.125 10.296875 24.621094 1.050781 3.335937 4.144531 5.605468 7.640625 5.601562h39.34375zm0 0" fill="#004fac"/><path d="m288 96h-.144531c-61.855469.039062-111.96875 50.214844-111.925781 112.070312.039062 61.859376 50.214843 111.96875 112.070312 111.929688h.144531c61.855469-.039062 111.96875-50.214844 111.925781-112.070312-.039062-61.859376-50.214843-111.96875-112.070312-111.929688zm.105469 208h-.105469c-53.019531.03125-96.023438-42.925781-96.054688-95.945312-.03125-53.019532 42.921876-96.023438 95.941407-96.054688h.113281c53.019531-.03125 96.023438 42.925781 96.054688 95.945312.03125 53.019532-42.921876 96.023438-95.941407 96.054688zm0 0" fill="#004fac"/><path d="m347.246094 153.65625c-3.53125 2.652344-4.25 7.664062-1.597656 11.199219 16.324218 21.8125 18.941406 50.96875 6.757812 75.339843-12.179688 24.367188-37.074219 39.773438-64.316406 39.804688h-.089844c-17.714844.011719-34.808594-6.519531-48-18.34375-3.296875-2.898438-8.3125-2.597656-11.242188.671875-2.925781 3.269531-2.671874 8.289063.570313 11.246094 16.125 14.453125 37.019531 22.441406 58.671875 22.425781h.105469c33.300781-.035156 63.726562-18.871094 78.617187-48.65625 14.886719-29.789062 11.683594-65.429688-8.273437-92.085938-2.652344-3.535156-7.667969-4.253906-11.203125-1.601562zm0 0" fill="#004fac"/><path d="m287.921875 137.183594c4.417969 0 8-3.582032 8-8 0-4.417969-3.582031-8-8-8-33.007813-.066406-63.167969 18.675781-77.722656 48.296875-1.964844 3.957031-.347657 8.757812 3.613281 10.722656 3.957031 1.964844 8.757812.347656 10.722656-3.609375 11.867188-24.167969 36.464844-39.457031 63.386719-39.410156zm0 0" fill="#004fac"/><path d="m210.121094 193.433594c-4.402344-.367188-8.269532 2.90625-8.632813 7.308594-.207031 2.402343-.304687 4.875-.304687 7.386718 0 1.03125 0 2.054688.054687 3.085938.164063 4.300781 3.699219 7.699218 8 7.695312h.304688c4.417969-.164062 7.863281-3.878906 7.695312-8.292968 0-.847657-.046875-1.695313-.046875-2.519532 0-2.035156.082032-4.042968.25-6.027344.175782-2.113281-.496094-4.214843-1.871094-5.835937-1.371093-1.621094-3.332031-2.628906-5.449218-2.800781zm0 0" fill="#004fac"/><path d="m80 392c-13.253906 0-24 10.746094-24 24s10.746094 24 24 24 24-10.746094 24-24-10.746094-24-24-24zm0 32c-4.417969 0-8-3.582031-8-8s3.582031-8 8-8 8 3.582031 8 8-3.582031 8-8 8zm0 0" fill="#004fac"/><path d="m152 408h-16.640625c-1.324219-9.242188-4.957031-18.003906-10.558594-25.472656l11.75-11.75c3.03125-3.140625 2.988281-8.128906-.097656-11.214844s-8.074219-3.128906-11.214844-.097656l-11.765625 11.734375c-7.46875-5.601563-16.230468-9.234375-25.472656-10.558594v-16.640625c0-4.417969-3.582031-8-8-8s-8 3.582031-8 8v16.640625c-9.242188 1.324219-18.003906 4.957031-25.472656 10.558594l-11.75-11.734375c-3.140625-3.03125-8.128906-2.988282-11.214844.097656s-3.128906 8.074219-.097656 11.214844l11.734375 11.75c-5.601563 7.46875-9.234375 16.230468-10.558594 25.472656h-16.640625c-4.417969 0-8 3.582031-8 8s3.582031 8 8 8h16.640625c1.324219 9.242188 4.957031 18.003906 10.558594 25.472656l-11.734375 11.75c-2.082032 2.011719-2.914063 4.984375-2.183594 7.78125.734375 2.796875 2.917969 4.980469 5.714844 5.714844 2.796875.730469 5.769531-.101562 7.78125-2.183594l11.75-11.734375c7.46875 5.601563 16.230468 9.234375 25.472656 10.558594v16.640625c0 4.417969 3.582031 8 8 8s8-3.582031 8-8v-16.640625c9.242188-1.324219 18.003906-4.957031 25.472656-10.558594l11.75 11.75c3.140625 3.03125 8.128906 2.988281 11.214844-.097656s3.128906-8.074219.097656-11.214844l-11.734375-11.765625c5.601563-7.46875 9.234375-16.230468 10.558594-25.472656h16.640625c4.417969 0 8-3.582031 8-8s-3.582031-8-8-8zm-43.710938 36.257812c-15.601562 15.613282-40.910156 15.613282-56.511718 0-15.617188-15.601562-15.617188-40.914062 0-56.515624 15.601562-15.613282 40.910156-15.613282 56.511718 0 15.613282 15.601562 15.613282 40.914062 0 56.515624zm0 0" fill="#004fac"/><path d="m242.023438 192h-2.023438c-4.417969 0-8 3.582031-8 8s3.582031 8 8 8c.019531 2.675781.199219 5.347656.542969 8h-.542969c-4.417969 0-8 3.582031-8 8s3.582031 8 8 8h4.695312c6.554688 18.503906 23.691407 31.167969 43.304688 32 15.09375-.292969 29.0625-8.046875 37.296875-20.703125 2.328125-3.621094 1.371094-8.4375-2.164063-10.894531-3.535156-2.457032-8.378906-1.679688-10.964843 1.765625-5.277344 8.320312-14.320313 13.496093-24.167969 13.832031-10.710938-.464844-20.378906-6.546875-25.441406-16h17.441406c4.417969 0 8-3.582031 8-8s-3.582031-8-8-8h-23.351562c-.433594-2.644531-.648438-5.320312-.648438-8h24c4.417969 0 8-3.582031 8-8s-3.582031-8-8-8h-21.289062c3.667968-13.414062 15.414062-23.042969 29.289062-24 9.847656.335938 18.890625 5.511719 24.167969 13.832031 2.585937 3.445313 7.429687 4.222657 10.964843 1.765625 3.535157-2.457031 4.492188-7.273437 2.164063-10.894531-8.234375-12.65625-22.203125-20.410156-37.296875-20.703125-22.664062 1.265625-41.585938 17.730469-45.976562 40zm0 0" fill="#004fac"/></svg>