<svg xmlns="http://www.w3.org/2000/svg" xmlns:xlink="http://www.w3.org/1999/xlink" viewBox="0 0 172 370"><defs><path id="a" d="M0 369.875V0h171.447v369.875z"/><rect id="d" width="32" height="32" x="0" y="0" rx="16"/><filter id="c" width="406.2%" height="406.2%" x="-153.1%" y="-146.9%" filterUnits="objectBoundingBox"><feOffset dy="2" in="SourceAlpha" result="shadowOffsetOuter1"/><feGaussianBlur in="shadowOffsetOuter1" result="shadowBlurOuter1" stdDeviation="16"/><feColorMatrix in="shadowBlurOuter1" result="shadowMatrixOuter1" values="0 0 0 0 0 0 0 0 0 0 0 0 0 0 0 0 0 0 0.15 0"/><feOffset dy="1" in="SourceAlpha" result="shadowOffsetOuter2"/><feGaussianBlur in="shadowOffsetOuter2" result="shadowBlurOuter2" stdDeviation="3"/><feColorMatrix in="shadowBlurOuter2" result="shadowMatrixOuter2" values="0 0 0 0 0 0 0 0 0 0 0 0 0 0 0 0 0 0 0.09 0"/><feMerge><feMergeNode in="shadowMatrixOuter1"/><feMergeNode in="shadowMatrixOuter2"/></feMerge></filter><filter id="e" width="109.3%" height="118.3%" x="-4.7%" y="-9.1%" filterUnits="objectBoundingBox"><feGaussianBlur in="SourceGraphic" stdDeviation="1.3"/></filter><linearGradient id="f" x1="69.451%" x2="30.333%" y1="91.616%" y2="-28.692%"><stop offset="0%" stop-color="#D89E56"/><stop offset="100%" stop-color="#6F4E2F"/></linearGradient><linearGradient id="g" x1="51.236%" x2="48.751%" y1="91.616%" y2="-28.692%"><stop offset="0%" stop-color="#D89E56"/><stop offset="100%" stop-color="#6F4E2F"/></linearGradient><linearGradient id="h" x1="51.228%" x2="48.759%" y1="91.616%" y2="-28.692%"><stop offset="0%" stop-color="#D89E56"/><stop offset="100%" stop-color="#6F4E2F"/></linearGradient><linearGradient id="i" x1="62.362%" x2="37.501%" y1="91.616%" y2="-28.692%"><stop offset="0%" stop-color="#D89E56"/><stop offset="100%" stop-color="#6F4E2F"/></linearGradient><path id="k" d="M1.492 1.697l-.066 4.552c1.103-.03 2.204.107 3.259.408V2.144a9.47 9.47 0 0 0-3.193-.447z"/><filter id="j" width="345.5%" height="241%" x="-61.4%" y="-40.3%" filterUnits="objectBoundingBox"><feOffset dx="4" dy="3" in="SourceAlpha" result="shadowOffsetOuter1"/><feColorMatrix in="shadowOffsetOuter1" values="0 0 0 0 0 0 0 0 0 0 0 0 0 0 0 0 0 0 0.15 0"/></filter><path id="m" d="M3.682 8.074V5.367c.772.01 1.532.168 2.234.465v2.629a11.531 11.531 0 0 0-2.234-.387z"/><filter id="l" width="458.2%" height="326.2%" x="-89.5%" y="-64.6%" filterUnits="objectBoundingBox"><feOffset dx="4" dy="3" in="SourceAlpha" result="shadowOffsetOuter1"/><feColorMatrix in="shadowOffsetOuter1" values="0 0 0 0 0 0 0 0 0 0 0 0 0 0 0 0 0 0 0.15 0"/></filter><path id="n" d="M0 0h174.554v33.639H0z"/><filter id="o" width="116.6%" height="186.2%" x="-8.3%" y="-37.2%" filterUnits="objectBoundingBox"><feOffset dy="2" in="SourceAlpha" result="shadowOffsetOuter1"/><feGaussianBlur in="shadowOffsetOuter1" result="shadowBlurOuter1" stdDeviation="4.5"/><feColorMatrix in="shadowBlurOuter1" values="0 0 0 0 0 0 0 0 0 0 0 0 0 0 0 0 0 0 0.1 0"/></filter></defs><g fill="none" fill-rule="evenodd"><mask id="b" fill="#fff"><use xlink:href="#a"/></mask><use fill="#FFF" xlink:href="#a"/><g mask="url(#b)"><g transform="translate(127 325)"><use fill="#000" filter="url(#c)" xlink:href="#d"/><use fill="#FF3465" xlink:href="#d"/></g><path fill="#FFF" d="M150.269 345.452l.193-.064-.005 4.757-4.501-1.945h-6.42a3.998 3.998 0 0 1-4.003-3.994v-7.212a3.994 3.994 0 0 1 4.002-3.994h6.93a3.998 3.998 0 0 1 4.002 3.994v7.212c0 .435-.07.854-.198 1.246zm-12.578-1.687c-.13.164-.125.457-.008.675.116.219 2.468 1.618 5.396 1.618 2.927 0 5.1-1.37 5.284-1.618.182-.247.244-.426 0-.652-.245-.226-.34-.134-.658.01-.317.142-2.394 1.378-4.671 1.357-2.278-.02-4.19-1.084-4.58-1.443-.39-.359-.634-.111-.763.053z"/></g><g mask="url(#b)"><path fill="#F5F5F5" fill-rule="nonzero" d="M-1 73h172.312v297.684H-1z"/><path fill="#EBEEF4" fill-rule="nonzero" d="M7.758 26.495l51.46 25.44 32.347-18.72-55.872-24z" filter="url(#e)" transform="translate(35 160.6)"/><g fill-rule="nonzero"><path fill="#A19DB1" d="M53.587 158.662l44.134 24.934 20.061-11.334-44.134-24.933z"/><path fill="url(#f)" d="M17.9 15.925l-2.186-1.194L.141 40.381a.488.488 0 0 0-.049.521.51.51 0 0 0 .455.275.506.506 0 0 0 .47-.31L17.9 15.925z" transform="translate(41.513 145)"/><path fill="url(#g)" d="M53.68 36.724l-2.152 28.578a.496.496 0 0 0 .245.457.52.52 0 0 0 .528 0 .496.496 0 0 0 .245-.457l3.936-27.909-2.802-.67z" transform="translate(41.513 145)"/><path fill="url(#h)" d="M31.688 8.709L30.414 24.9a.493.493 0 0 0 .243.457.518.518 0 0 0 .527-.002.5.5 0 0 0 .247-.458l2.147-14.88c.628-4.356-1.564-5.449-1.89-1.31z" transform="rotate(14 -537.657 257.32)"/><path fill="#FFF" d="M53.587 156.395l44.134 24.934 20.061-11.332-44.134-24.935z"/><path fill="url(#i)" d="M84.274 47.75a.512.512 0 0 0-.064-.141l-9.484-20.604-1.938 1.1 10.526 19.957.012.024.024.044c.12.186.35.272.567.212a.499.499 0 0 0 .357-.592z" transform="translate(41.513 145)"/><path fill="#A9B1C1" d="M53.587 156.395v2.267l44.134 24.934 20.061-11.334v-2.265l-20.06 11.332z"/><path fill="#858B98" d="M53.587 158.662l44.134 24.934v-2.267l-44.134-24.934z"/></g><g fill-rule="nonzero"><path fill="#EDEEEE" stroke="#EDEEEE" stroke-linecap="round" stroke-linejoin="round" stroke-width=".751" d="M72.9 163l3.486-2.251 11.671 6.489-3.908 2.082z"/><path fill="#FFF" d="M77.397 164.618L80 166.067l-.451.25-2.603-1.449z"/><path fill="#A9B1C1" d="M76.946 164.87v.075l2.603 1.448.45-.25v-.076l-.45.25z"/><path fill="#BCC4D7" d="M88.339 167.238v.196a.184.184 0 0 1-.098.136c-.093.056-3.906 1.995-3.906 1.995s-.162.1-.279.048c-.116-.053-10.505-5.907-10.505-5.907h.063l10.4 5.833c.097.05.214.046.306-.012.162-.095 4.019-2.29 4.019-2.29z"/><path fill="#FFF" d="M75.852 161.417l.45.25.45-.25-.45-.25z"/><path fill="#A9B1C1" d="M75.852 161.417v.08l.45.251.45-.25v-.08l-.45.25z"/><path fill="#FFF" d="M76.564 161.804l.45.25.45-.25-.45-.248z"/><path fill="#A9B1C1" d="M76.564 161.804v.082l.45.25.45-.25v-.082l-.45.25z"/><path fill="#FFF" d="M77.993 162.588l.45.25.45-.25-.45-.25z"/><path fill="#A9B1C1" d="M77.993 162.588v.08l.45.25.45-.25v-.08l-.45.25z"/><path fill="#FFF" d="M78.695 162.975l.45.25.45-.25-.45-.25z"/><path fill="#A9B1C1" d="M78.695 162.975v.08l.45.25.45-.25v-.08l-.45.25z"/><path fill="#FFF" d="M79.418 163.379l.45.25.45-.25-.45-.25z"/><path fill="#A9B1C1" d="M79.418 163.379v.08l.45.25.45-.25v-.08l-.45.25z"/><path fill="#FFF" d="M80.136 163.79l.449.25.45-.25-.45-.25z"/><path fill="#A9B1C1" d="M80.136 163.79v.08l.449.251.45-.25v-.08l-.45.25z"/><path fill="#FFF" d="M80.847 164.18l.45.25.45-.25-.45-.248z"/><path fill="#A9B1C1" d="M80.847 164.18v.083l.45.25.45-.25v-.083l-.45.25z"/><path fill="#FFF" d="M81.572 164.578l.449.25.45-.25-.45-.25z"/><path fill="#A9B1C1" d="M81.572 164.578v.08l.449.25.45-.25v-.08l-.45.25z"/><path fill="#FFF" d="M82.277 164.971l.449.25.45-.25-.45-.25z"/><path fill="#A9B1C1" d="M82.277 164.971v.081l.449.25.45-.25v-.08l-.45.25z"/><path fill="#FFF" d="M82.986 165.363l.449.25.45-.25-.45-.25z"/><path fill="#A9B1C1" d="M82.986 165.363v.081l.449.25.45-.25v-.08l-.45.25z"/><path fill="#FFF" d="M83.698 165.755l.451.25.45-.25-.45-.25z"/><path fill="#A9B1C1" d="M83.698 165.755v.083l.451.248.45-.248v-.083l-.45.25z"/><path fill="#FFF" d="M84.393 166.148l.45.25.451-.25-.45-.25z"/><path fill="#A9B1C1" d="M84.393 166.148v.08l.45.25.451-.25v-.08l-.45.25z"/><path fill="#FFF" d="M85.094 166.534l.45.25.45-.25-.45-.25z"/><path fill="#A9B1C1" d="M85.094 166.534v.082l.45.249.45-.249v-.082l-.45.25z"/><path fill="#FFF" d="M85.789 166.921l.45.25.451-.25-.45-.25z"/><path fill="#A9B1C1" d="M85.789 166.921v.08l.45.25.451-.25v-.08l-.45.25z"/><path fill="#FFF" d="M86.492 167.304l.45.25.45-.25-.45-.25z"/><path fill="#A9B1C1" d="M86.492 167.304v.08l.45.251.45-.25v-.08l-.45.25z"/><path fill="#FFF" d="M77.273 162.177l.45.25.45-.25-.45-.25z"/><path fill="#A9B1C1" d="M77.273 162.177v.08l.45.25.45-.25v-.08l-.45.25z"/><path fill="#FFF" d="M75.243 161.81l.45.248.45-.249-.45-.25z"/><path fill="#A9B1C1" d="M75.243 161.81v.08l.45.25.45-.25v-.08l-.45.248z"/><path fill="#FFF" d="M75.955 162.196l.45.25.45-.25-.45-.25z"/><path fill="#A9B1C1" d="M75.955 162.196v.08l.45.25.45-.25v-.08l-.45.25z"/><path fill="#FFF" d="M77.384 162.978l.45.25.45-.25-.45-.25z"/><path fill="#A9B1C1" d="M77.384 162.978v.082l.45.249.45-.248v-.083l-.45.25z"/><path fill="#FFF" d="M78.086 163.367l.449.248.45-.248-.45-.25z"/><path fill="#A9B1C1" d="M78.086 163.367v.08l.449.25.45-.25v-.08l-.45.248z"/><path fill="#FFF" d="M78.809 163.77l.45.25.45-.25-.45-.251z"/><path fill="#A9B1C1" d="M78.809 163.77v.08l.45.25.45-.25v-.08l-.45.25z"/><path fill="#FFF" d="M79.525 164.18l.45.25.452-.25-.451-.248z"/><path fill="#A9B1C1" d="M79.525 164.18v.083l.45.25.452-.25v-.083l-.451.25z"/><path fill="#FFF" d="M80.238 164.572l.45.25.45-.25-.45-.25z"/><path fill="#A9B1C1" d="M80.238 164.572v.081l.45.25.45-.25v-.08l-.45.25z"/><path fill="#FFF" d="M80.963 164.968l.449.25.45-.25-.45-.248z"/><path fill="#A9B1C1" d="M80.963 164.968v.082l.449.25.45-.25v-.082l-.45.25z"/><path fill="#FFF" d="M81.668 165.362l.45.25.45-.25-.45-.25z"/><path fill="#A9B1C1" d="M81.668 165.362v.08l.45.25.45-.25v-.08l-.45.25z"/><path fill="#FFF" d="M82.377 165.754l.449.25.45-.25-.45-.249z"/><path fill="#A9B1C1" d="M82.377 165.754v.082l.449.25.45-.25v-.082l-.45.25z"/><path fill="#FFF" d="M83.09 166.148l.448.25.451-.25-.45-.25z"/><path fill="#A9B1C1" d="M83.09 166.148v.08l.448.25.451-.25v-.08l-.45.25z"/><path fill="#FFF" d="M83.784 166.538l.45.25.45-.25-.45-.25z"/><path fill="#A9B1C1" d="M83.784 166.538v.082l.45.248.45-.248v-.082l-.45.25z"/><path fill="#FFF" d="M84.485 166.926l.45.249.45-.249-.45-.25z"/><path fill="#A9B1C1" d="M84.485 166.926v.08l.45.251.45-.25v-.08l-.45.248z"/><path fill="#FFF" d="M85.18 167.313l.45.25.45-.25-.45-.25z"/><path fill="#A9B1C1" d="M85.18 167.313v.08l.45.25.45-.25v-.08l-.45.25z"/><path fill="#FFF" d="M85.883 167.695l.45.25.45-.25-.45-.25z"/><path fill="#A9B1C1" d="M85.883 167.695v.08l.45.25.45-.25v-.08l-.45.25z"/><path fill="#FFF" d="M76.664 162.567l.451.25.449-.25-.449-.25z"/><path fill="#A9B1C1" d="M76.664 162.567v.08l.451.25.449-.25v-.08l-.449.25z"/><path fill="#FFF" d="M74.641 162.185l.451.25.449-.25-.449-.25z"/><path fill="#A9B1C1" d="M74.641 162.185v.081l.451.25.449-.25v-.08l-.449.25z"/><path fill="#FFF" d="M75.354 162.572l.45.25.45-.25-.45-.25z"/><path fill="#A9B1C1" d="M75.354 162.572v.08l.45.251.45-.25v-.08l-.45.25z"/><path fill="#FFF" d="M76.782 163.355l.451.25.45-.25-.45-.25z"/><path fill="#A9B1C1" d="M76.782 163.355v.082l.451.248.45-.248v-.083l-.45.25z"/><path fill="#FFF" d="M77.484 163.743l.45.249.45-.249-.45-.25z"/><path fill="#A9B1C1" d="M77.484 163.743v.08l.45.25.45-.25v-.08l-.45.249z"/><path fill="#FFF" d="M78.207 164.145l.451.25.45-.25-.45-.25z"/><path fill="#A9B1C1" d="M78.207 164.145v.081l.451.25.45-.25v-.08l-.45.25z"/><path fill="#FFF" d="M78.925 164.558l.45.249.45-.248-.45-.25z"/><path fill="#A9B1C1" d="M78.925 164.558v.081l.45.25.45-.25v-.08l-.45.248z"/><path fill="#FFF" d="M79.636 164.949l.45.25.45-.25-.45-.25z"/><path fill="#A9B1C1" d="M79.636 164.949v.08l.45.25.45-.25v-.08l-.45.25z"/><path fill="#FFF" d="M80.361 165.344l.45.25.45-.25-.45-.248z"/><path fill="#A9B1C1" d="M80.361 165.344v.082l.45.249.45-.249v-.082l-.45.25z"/><path fill="#FFF" d="M81.067 165.738l.448.25.451-.25-.45-.25z"/><path fill="#A9B1C1" d="M81.067 165.738v.08l.448.25.451-.25v-.08l-.45.25z"/><path fill="#FFF" d="M81.775 166.132l.451.25.45-.25-.45-.25z"/><path fill="#A9B1C1" d="M81.775 166.132v.08l.451.25.45-.25v-.08l-.45.25z"/><path fill="#FFF" d="M82.488 166.524l.45.25.45-.25-.45-.25z"/><path fill="#A9B1C1" d="M82.488 166.524v.08l.45.25.45-.25v-.08l-.45.25z"/><path fill="#FFF" d="M83.182 166.914l.451.25.45-.25-.45-.25z"/><path fill="#A9B1C1" d="M83.182 166.914v.082l.451.25.45-.25v-.082l-.45.25z"/><path fill="#FFF" d="M83.884 167.302l.449.25.45-.25-.45-.25z"/><path fill="#A9B1C1" d="M83.884 167.302v.081l.449.25.45-.25v-.08l-.45.25z"/><path fill="#FFF" d="M84.578 167.69l.45.25.45-.25-.45-.251z"/><path fill="#A9B1C1" d="M84.578 167.69v.08l.45.25.45-.25v-.08l-.45.25z"/><path fill="#FFF" d="M85.282 168.07l.449.251.45-.25-.45-.25z"/><path fill="#A9B1C1" d="M85.282 168.07v.081l.449.25.45-.25v-.08l-.45.25z"/><path fill="#FFF" d="M76.063 162.943l.45.25.45-.25-.45-.25z"/><path fill="#A9B1C1" d="M76.063 162.943v.08l.45.251.45-.25v-.08l-.45.25z"/><path fill="#FFF" d="M74.01 162.539l.451.25.45-.25-.45-.25z"/><path fill="#A9B1C1" d="M74.01 162.539v.08l.451.25.45-.25v-.08l-.45.25z"/><path fill="#FFF" d="M74.723 162.926l.449.25.45-.25-.45-.25z"/><path fill="#A9B1C1" d="M74.723 162.926v.08l.449.25.45-.25v-.08l-.45.25z"/><path fill="#FFF" d="M76.152 163.71l.45.25.45-.25-.45-.25z"/><path fill="#A9B1C1" d="M76.152 163.71v.08l.45.25.45-.25v-.08l-.45.25z"/><path fill="#FFF" d="M76.853 164.096l.451.25.449-.25-.449-.25z"/><path fill="#A9B1C1" d="M76.853 164.096v.081l.451.25.449-.25v-.08l-.449.25z"/><path fill="#FFF" d="M77.577 164.5l.45.251.45-.25-.45-.25z"/><path fill="#A9B1C1" d="M77.577 164.5v.081l.45.25.45-.25v-.08l-.45.25z"/><path fill="#EDEEEE" d="M78.295 164.912l.449.25.45-.25-.45-.25z"/><path fill="#A9B1C1" d="M78.295 164.912v.08l.449.25.45-.25v-.08l-.45.25z"/><path fill="#FFF" d="M79.005 165.302l.451.25.449-.25-.449-.25z"/><path fill="#A9B1C1" d="M79.005 165.302v.08l.451.251.449-.25v-.08l-.449.25z"/><path fill="#FFF" d="M79.73 165.7l.45.25.45-.25-.45-.25z"/><path fill="#A9B1C1" d="M79.73 165.7v.08l.45.25.45-.25v-.08l-.45.25z"/><path fill="#FFF" d="M80.436 166.093l.449.249.45-.249-.45-.25z"/><path fill="#A9B1C1" d="M80.436 166.093v.08l.449.251.45-.25v-.08l-.45.248z"/><path fill="#FFF" d="M81.145 166.485l.449.25.45-.25-.45-.25z"/><path fill="#A9B1C1" d="M81.145 166.485v.08l.449.251.45-.25v-.08l-.45.25z"/><path fill="#FFF" d="M81.857 166.877l.45.25.45-.25-.45-.25z"/><path fill="#A9B1C1" d="M81.857 166.877v.08l.45.251.45-.25v-.08l-.45.25z"/><path fill="#FFF" d="M82.552 167.27l.45.25.451-.25-.45-.251z"/><path fill="#A9B1C1" d="M82.552 167.27v.08l.45.25.451-.25v-.08l-.45.25z"/><path fill="#FFF" d="M83.253 167.656l.45.25.45-.25-.45-.25z"/><path fill="#A9B1C1" d="M83.253 167.656v.08l.45.25.45-.25v-.08l-.45.25z"/><path fill="#FFF" d="M83.947 168.043l.451.25.45-.25-.45-.25z"/><path fill="#A9B1C1" d="M83.947 168.043v.08l.451.25.45-.25v-.08l-.45.25z"/><path fill="#FFF" d="M84.65 168.426l.45.25.45-.25-.45-.25z"/><path fill="#A9B1C1" d="M84.65 168.426v.08l.45.25.45-.25v-.08l-.45.25z"/><path fill="#FFF" d="M75.432 163.297l.45.25.45-.25-.45-.249z"/><path fill="#A9B1C1" d="M75.432 163.297v.082l.45.25.45-.25v-.082l-.45.25z"/><path fill="#FFF" d="M73.374 162.9l.451.248.449-.248-.449-.25z"/><path fill="#A9B1C1" d="M73.374 162.9v.08l.451.25.449-.25v-.08l-.449.248z"/><path fill="#FFF" d="M74.087 163.286l.449.25.45-.25-.45-.25z"/><path fill="#A9B1C1" d="M74.087 163.286v.08l.449.251.45-.25v-.08l-.45.25z"/><path fill="#FFF" d="M75.515 164.069l.451.25.45-.25-.45-.25z"/><path fill="#A9B1C1" d="M75.515 164.069v.082l.451.248.45-.248v-.083l-.45.25z"/><path fill="#FFF" d="M76.217 164.457l.45.248.45-.248-.45-.25z"/><path fill="#A9B1C1" d="M76.217 164.457v.08l.45.25.45-.25v-.08l-.45.248z"/><path fill="#FFF" d="M79.8 166.452l.449.25.45-.25-.45-.25z"/><path fill="#A9B1C1" d="M79.8 166.452v.08l.449.25.45-.25v-.08l-.45.25z"/><path fill="#FFF" d="M80.508 166.846l.45.25.45-.25-.45-.25z"/><path fill="#A9B1C1" d="M80.508 166.846v.08l.45.25.45-.25v-.08l-.45.25z"/><path fill="#FFF" d="M81.221 167.238l.45.25.45-.25-.45-.25z"/><path fill="#A9B1C1" d="M81.221 167.238v.08l.45.25.45-.25v-.08l-.45.25z"/><path fill="#FFF" d="M81.915 167.628l.451.25.45-.25-.45-.248z"/><path fill="#A9B1C1" d="M81.915 167.628v.082l.451.25.45-.25v-.082l-.45.25z"/><path fill="#FFF" d="M82.617 168.017l.449.25.45-.25-.45-.25z"/><path fill="#A9B1C1" d="M82.617 168.017v.08l.449.25.45-.25v-.08l-.45.25z"/><path fill="#FFF" d="M83.311 168.403l.451.25.45-.25-.45-.25z"/><path fill="#A9B1C1" d="M83.311 168.403v.08l.451.251.45-.25v-.08l-.45.25z"/><path fill="#FFF" d="M84.015 168.785l.449.25.45-.25-.45-.25z"/><path fill="#A9B1C1" d="M84.015 168.785v.082l.449.248.45-.248v-.082l-.45.25z"/><path fill="#FFF" d="M74.796 163.657l.45.25.45-.25-.45-.25z"/><path fill="#A9B1C1" d="M74.796 163.657v.08l.45.251.45-.25v-.08l-.45.25z"/></g><g fill-rule="nonzero"><path fill="#838092" d="M85.93 171.087l4.464-2.352 4.466 2.352-4.466 2.352z"/><path fill="#EDEEEE" d="M85.93 170.913l4.464-2.352 4.466 2.352-4.466 2.352z"/><path fill="#A9B1C1" d="M85.93 170.913v.174l4.464 2.352 4.466-2.352v-.174l-4.466 2.352z"/></g><g fill-rule="nonzero" transform="translate(87.105 167.1)"><ellipse cx="2.617" cy="3.216" fill="#FFF" rx="2.064" ry="1.115" transform="rotate(-30 2.617 3.216)"/><ellipse cx="3.497" cy="2.247" fill="#A9B1C1" rx="1" ry="1"/></g><path fill="#A9B1C1" fill-rule="nonzero" d="M83.453 159.388v.25l3.791 2.018 3.758-2.013-.252-1.708-.23-.122.243 1.71-3.542 1.871z"/><path stroke="#DDE1E9" stroke-width=".65" d="M87.201 161.295l3.463-1.814-.25-1.629-3.997-2.142.433 1.906-3.209 1.77 1.12.604z"/><path fill="#A9B1C1" fill-rule="nonzero" d="M83.83 159.39l3.125-1.734-.406-1.77.237.127.367 1.711-3.16 1.748z"/><path fill="#311E40" fill-rule="nonzero" d="M80.767 145.34l.388-.181s3.628-.27 8.286 1.507c5.024 1.915 6.627 4.316 6.627 4.316l-.292 10.37-.513.217.129-10.43-1.958-1.78-12.667-4.02z"/><path fill="#FF3465" fill-rule="nonzero" stroke="#311E40" stroke-linecap="round" stroke-linejoin="round" stroke-width=".751" d="M95.397 151.146c-4.97-5.595-14.461-5.58-14.461-5.58l-.091 9.238c1.427.106 8.7.36 14.273 6.556l.28-10.214z"/><g fill-rule="nonzero" opacity=".6" transform="translate(80.592 145)"><use fill="#000" filter="url(#j)" xlink:href="#k"/><use fill="#FFEA68" xlink:href="#k"/></g><g fill-rule="nonzero" opacity=".6" transform="translate(80.592 145)"><use fill="#000" filter="url(#l)" xlink:href="#m"/><use fill="#FFEA68" xlink:href="#m"/></g><path fill="#FFF" fill-rule="nonzero" d="M93.434 149.025l-8.132 6.715a22.637 22.637 0 0 1 5.7 2.446s2.27 1.55 3.496 2.94c0 0 .42.44.44.456a.337.337 0 0 0 .287.036.27.27 0 0 0 .194-.278c0-.141.272-10.076.272-10.076s.058-.18-.245-.493c-.303-.312-1.36-1.35-2.012-1.746z" opacity=".2"/><path fill="#FFEA68" fill-rule="nonzero" d="M91.686 158.39s.056 1.444-.456 1.847l1.491 1.058s.472-.147.476-1.751l-1.511-1.154z"/><path stroke="#282C2E" stroke-linecap="square" stroke-width="1.71" d="M17.167 128.866h29.07"/><path fill="#D8D8D8" stroke="#D7D7D7" stroke-linecap="square" stroke-width="1.71" d="M17 265.003h83.06"/><path stroke="#282C2E" stroke-linecap="square" stroke-width="1.71" d="M17.167 248.866h29.07"/><path fill="#D8D8D8" stroke="#D7D7D7" stroke-linecap="square" stroke-width="1.71" d="M17.085 258.72h82.976M17 345.003h83.06"/><path stroke="#282C2E" stroke-linecap="square" stroke-width="1.71" d="M17.167 328.866h29.07"/><path fill="#D8D8D8" stroke="#D7D7D7" stroke-linecap="square" stroke-width="1.71" d="M17.085 338.72h82.976"/><path stroke="#000" stroke-linecap="round" stroke-linejoin="round" d="M59.11 127l-2.434 2.273a.176.176 0 0 1-.12.047.176.176 0 0 1-.121-.047L54 127"/><g transform="translate(16 89)"><rect width="136" height="22" fill="#FF3465" fill-rule="nonzero" rx="2"/><text fill="#FFF" font-family="OpenSans-Regular, Open Sans" font-size="7" transform="translate(32 6)"><tspan x="14" y="7">Ajouter un service</tspan></text><g stroke="#FFF" stroke-linecap="round" stroke-linejoin="round" stroke-width=".729"><path d="M32.681 8.697l3.413-1.338c.26-.104.55-.104.81 0l3.413 1.338a.661.661 0 0 1 .402.623v4.36a.661.661 0 0 1-.4.624l-3.413 1.338c-.26.102-.55.102-.81 0l-3.413-1.338a.661.661 0 0 1-.402-.624V9.32a.661.661 0 0 1 .4-.623zM36.5 10.507l-4.086-1.602M36.5 10.507l4.086-1.602M36.5 15.719v-5.212"/></g><rect width="139.5" height="21.5" x="1.25" y="189.25" stroke="#D7D7D7" stroke-width=".5" rx="2"/><g><text fill="#282C2E" font-family="OpenSans-Regular, Open Sans" font-size="7" transform="translate(49 195)"><tspan x="12" y="7">S’y rendre</tspan></text><path stroke="#282C2E" stroke-linecap="round" stroke-linejoin="round" stroke-width=".5" d="M55.711 199.003l-1.793-1.809c-.059-.055-.106-.034-.106.047v1.035h-4.156c-.242 0-.438.199-.438.445v4.67c0 .246.196.445.438.445h.656c.242 0 .438-.199.438-.444V200.5c0-.246.196-.445.437-.445h2.625v1.035c0 .08.048.102.106.047l1.793-1.81a.224.224 0 0 0 0-.326v.002z"/></g></g><g fill="#282C2E" font-family="Avenir-Heavy, Avenir" font-size="6" font-weight="600"><text transform="translate(16.952 218.707)"><tspan x="30.224" y="6">BUREAU - CHAMPS-ÉLYSÉE</tspan></text><text transform="translate(16.952 218.707)"><tspan x=".054" y="20">Localisation</tspan></text><text transform="translate(16.952 218.707)"><tspan x="0" y="100">Réservation</tspan></text><text transform="translate(16.952 218.707)"><tspan x="0" y="145">Coût</tspan></text></g></g><g font-family="Avenir-Heavy, Avenir" font-size="10" font-weight="600" mask="url(#b)"><text transform="translate(14.952 47.707)"><tspan x=".42" y="10" fill="#282C2E">Services</tspan></text></g><g mask="url(#b)"><g transform="translate(-1.722 .596)"><mask id="p" fill="#fff"><use xlink:href="#n"/></mask><g fill-rule="nonzero"><use fill="#000" filter="url(#o)" xlink:href="#n"/><use fill="#FFF" xlink:href="#n"/></g><g mask="url(#p)"><path fill="#1576E1" d="M-1.8-.3h36.639v36.639H-1.8z"/><path fill="#FFF" d="M18.3 11.886a4.216 4.216 0 0 0-2.993 1.242 4.229 4.229 0 0 0-1.24 2.997c0 1.17.474 2.23 1.24 2.997a4.218 4.218 0 0 0 2.517 1.215v2.835h.53l.05-.001H18.413l.102-.004h.005l.102-.007h.003l.014-.001.037-.004h.005l.046-.004.008-.001.032-.004.018-.002h.008l.026-.004.02-.002h.005l.025-.004.022-.003h.004l.025-.004.024-.004h.002l.025-.004.025-.004.025-.005.025-.004h.005l.045-.01h.006l.044-.009.006-.001.009-.002.035-.007.008-.002.004-.001.039-.009.015-.003.04-.01h.004l.013-.004.025-.006.005-.002.016-.004h.003l.024-.007.015-.004.01-.002.033-.01.008-.002.007-.002.024-.007h.003l.021-.007.024-.007.005-.002.033-.01.017-.005.034-.012.007-.002.023-.008.024-.008.024-.008h.002l.021-.008.023-.009.02-.007.004-.002.023-.008.019-.008.004-.001.024-.01.023-.008.023-.01a4.24 4.24 0 0 0 1.402-.932 4.228 4.228 0 0 0 1.24-2.997c0-1.17-.474-2.23-1.24-2.997a4.218 4.218 0 0 0-2.518-1.215v-2.835H18.3zm-.709 5.315a3.226 3.226 0 0 1-.948-2.288c0-.667.202-1.286.548-1.801.178-.061.365-.106.556-.134v4.369a3.208 3.208 0 0 1-.156-.146zm-1.412 1.387a3.269 3.269 0 0 1-.196-4.517 4.337 4.337 0 0 0 1.239 4.018c.267.259.567.486.893.674v.768a3.473 3.473 0 0 1-1.936-.943zm4.898 1.503c0-1.22-.51-2.323-1.333-3.122a4.547 4.547 0 0 0-.893-.674v-.768a3.474 3.474 0 0 1 1.936.943 3.269 3.269 0 0 1 .196 4.517c.061-.289.094-.589.094-.896zm-2.226.238V17.71a3.226 3.226 0 0 1 1.104 2.434 3.22 3.22 0 0 1-.547 1.801l-.008.003-.009.003-.005.002-.02.006h-.002a3.135 3.135 0 0 1-.513.12v-1.751z"/></g><g mask="url(#p)"><path fill="#D7D7D7" d="M46.278 16.252h36v2.565h-36z"/></g><g mask="url(#p)"><path fill="#282C2E" fill-rule="nonzero" d="M149.473 12.642c-.222 0-.402.212-.402.473 0 .26.18.472.402.472h9.097c.222 0 .401-.212.401-.472 0-.261-.18-.473-.401-.473h-9.097zm0 5.355c-.222 0-.402.212-.402.473 0 .26.18.472.402.472h9.097c.222 0 .401-.212.401-.472 0-.261-.18-.473-.401-.473h-9.097z"/></g></g></g></g></svg>