<svg xmlns="http://www.w3.org/2000/svg" xmlns:xlink="http://www.w3.org/1999/xlink" viewBox="0 0 173 371"><defs><path id="a" d="M.861 370.357V.482h171.447v369.875z"/><path id="c" d="M0 0h174.554v33.639H0z"/><filter id="d" width="116.6%" height="186.2%" x="-8.3%" y="-37.2%" filterUnits="objectBoundingBox"><feOffset dy="2" in="SourceAlpha" result="shadowOffsetOuter1"/><feGaussianBlur in="shadowOffsetOuter1" result="shadowBlurOuter1" stdDeviation="4.5"/><feColorMatrix in="shadowBlurOuter1" values="0 0 0 0 0 0 0 0 0 0 0 0 0 0 0 0 0 0 0.1 0"/></filter></defs><g fill="none" fill-rule="evenodd"><mask id="b" fill="#fff"><use xlink:href="#a"/></mask><use fill="#FFF" xlink:href="#a"/><g mask="url(#b)"><path fill="#F5F5F5" fill-rule="nonzero" d="M.952 85.707h171.312V285.39H.952z"/><path fill="#D5DBE6" fill-rule="nonzero" d="M50 185.537l1.023.587-.29 41.668-.733-.42z"/><path fill="#FFF" d="M50 185.537L106.76 153l1.02.585v37.185l-57.047 37.022.108-41.772z"/><path fill="#F9F9F9" fill-rule="nonzero" d="M107.78 153.585l-1.02-.585-22.165 12.707-33.817 44.307-.045 17.778 57.047-37.022z"/><path stroke="#D7D7D7" stroke-width=".5" d="M107.78 153.585l-26.299 39.51-30.458-6.971M51.023 221.46l21.822-30.342"/><path fill="#D5DBE6" fill-rule="nonzero" d="M50 185.537L106.76 153l.662.38-56.581 32.64z"/><path fill="#FFF" d="M123.371 162.474l-56.757 32.539 1.003.594v41.834l50.828-29.138 5.932-3.398V163.07z"/><path fill="#D5DBE6" fill-rule="nonzero" d="M66.614 195.013l56.757-32.539 1.006.596-56.76 32.537z"/><path fill="#FFF" fill-rule="nonzero" d="M120.324 184.852a.781.781 0 0 0-.78 0l-19.495 11.176a.77.77 0 0 0-.39.672v15.964c0 .276.149.532.39.67a.785.785 0 0 0 .78.001l19.495-11.176a.77.77 0 0 0 .39-.671v-15.955a.774.774 0 0 0-.39-.68z"/><path stroke="#282C2E" stroke-linecap="round" stroke-linejoin="round" stroke-width=".75" d="M74.078 217.972l12.163-6.973M81.265 221.36l9.373-5.064M74.078 221.39l16.462-9.436"/><path stroke="#282C2E" stroke-linecap="round" stroke-linejoin="round" stroke-width=".5" d="M75.305 223.747v1.875l.816-.47v-1.873zM76.73 222.976v1.873l.817-.468v-1.873zM78.153 222.205v1.873l.819-.468v-1.873zM79.578 221.432v1.875l.818-.468v-1.875z"/><path fill="#FF3465" fill-rule="nonzero" stroke="#FFF" stroke-linecap="round" stroke-linejoin="round" stroke-width=".5" d="M119.966 170.978c0 .056.01.115.01.173 0 .536-.253.968-.569.968-.22 0-.409-.22-.502-.537l-.568.323c.01.071.015.143.015.214 0 .534-.252.969-.568.969-.23 0-.426-.237-.513-.564l-.625.357c.01.072.015.144.015.216 0 .534-.252.967-.568.967-.23 0-.426-.237-.513-.564l-.247.14v8.527l.368-.207a1.604 1.604 0 0 1-.04-.353c0-.534.252-.967.568-.967.258 0 .474.3.54.71l.623-.356a1.507 1.507 0 0 1-.042-.354c0-.534.252-.968.569-.968.259 0 .475.302.541.712l.568-.321a1.506 1.506 0 0 1-.049-.391c0-.534.252-.967.568-.967.267 0 .49.32.548.752l.252-.145v-8.54l-.381.206z"/><path fill="#D5DBE6" fill-rule="nonzero" d="M66.614 195.013v41.832l1.003.596v-41.834z"/><g><text fill="#7B7E80" font-family="OpenSans-Regular, Open Sans" font-size="9" transform="translate(39.952 247.707)"><tspan x=".048" y="10.293">Expéditeur :</tspan></text><path fill="#282C2E" d="M95.952 255.707h36.936v1.71H95.952z"/></g><g><path fill="#FFF" fill-rule="nonzero" stroke="#D7D7D7" stroke-width=".5" d="M19 96.25a3.75 3.75 0 0 0-3.75 3.75v17a3.75 3.75 0 0 0 3.75 3.75h134a3.75 3.75 0 0 0 3.75-3.75v-17a3.75 3.75 0 0 0-3.75-3.75H19z"/><g stroke="#282C2E" stroke-linecap="round" stroke-linejoin="round" stroke-width=".8"><path d="M146.926 107.725l-2.083-1.878a.524.524 0 0 0-.686 0l-2.083 1.878M146.926 110.275l-2.083 1.878a.524.524 0 0 1-.686 0l-2.083-1.878"/></g><text fill="#282C2E" font-family="Avenir-Heavy, Avenir" font-size="7" font-weight="600" transform="translate(15 96)"><tspan x="11" y="15">Adresse de réexpédition</tspan></text></g><g fill-rule="nonzero" transform="translate(144.432 130.332)"><rect width="12.425" height="8.408" x=".259" y=".259" stroke="#282C2E" stroke-width=".517" opacity=".2" rx="1.785"/><circle cx="3.793" cy="4.686" r="1" fill="#282C2E"/><circle cx="6.471" cy="4.686" r="1" fill="#282C2E"/><circle cx="9.149" cy="4.686" r="1" fill="#282C2E"/></g><g><path fill="#FF3465" fill-rule="nonzero" d="M21.697 130.608h34.81a4.463 4.463 0 1 1 0 8.926h-34.81a4.463 4.463 0 1 1 0-8.926z" opacity=".1"/><path stroke="#FF3465" stroke-linecap="square" stroke-width=".855" d="M23.493 135.07h14.738"/><g stroke="#FF3465" stroke-linecap="round" stroke-linejoin="round" stroke-width=".517"><path d="M56.004 134.583l-.718-.719a.167.167 0 0 0-.237 0l-.718.719M56.004 135.558l-.718.719a.167.167 0 0 1-.237 0l-.718-.719"/></g></g><g stroke-linecap="round" stroke-linejoin="round"><g stroke="#FF3465" stroke-width="1.112"><path d="M22.905 50.864h-7.113M17.466 52.538l-1.674-1.674 1.674-1.673"/></g></g><text font-family="Avenir-Heavy, Avenir" font-size="9" font-weight="600" transform="translate(-1.2 .4)"><tspan x="15.681" y="69.404" fill="#282C2E">Réexpédition de votre courrier</tspan></text><g transform="translate(-.722 .596)"><mask id="e" fill="#fff"><use xlink:href="#c"/></mask><g fill-rule="nonzero"><use fill="#000" filter="url(#d)" xlink:href="#c"/><use fill="#FFF" xlink:href="#c"/></g><g mask="url(#e)"><path fill="#1576E1" d="M-1.8-.3h36.639v36.639H-1.8z"/><path fill="#FFF" d="M18.3 11.886a4.216 4.216 0 0 0-2.993 1.242 4.229 4.229 0 0 0-1.24 2.997c0 1.17.474 2.23 1.24 2.997a4.218 4.218 0 0 0 2.517 1.215v2.835h.53l.05-.001H18.413l.102-.004h.005l.102-.007h.003l.014-.001.037-.004h.005l.046-.004.008-.001.032-.004.018-.002h.008l.026-.004.02-.002h.005l.025-.004.022-.003h.004l.025-.004.024-.004h.002l.025-.004.025-.004.025-.005.025-.004h.005l.045-.01h.006l.044-.009.006-.001.009-.002.035-.007.008-.002.004-.001.039-.009.015-.003.04-.01h.004l.013-.004.025-.006.005-.002.016-.004h.003l.024-.007.015-.004.01-.002.033-.01.008-.002.007-.002.024-.007h.003l.021-.007.024-.007.005-.002.033-.01.017-.005.034-.012.007-.002.023-.008.024-.008.024-.008h.002l.021-.008.023-.009.02-.007.004-.002.023-.008.019-.008.004-.001.024-.01.023-.008.023-.01a4.24 4.24 0 0 0 1.402-.932 4.228 4.228 0 0 0 1.24-2.997c0-1.17-.474-2.23-1.24-2.997a4.218 4.218 0 0 0-2.518-1.215v-2.835H18.3zm-.709 5.315a3.226 3.226 0 0 1-.948-2.288c0-.667.202-1.286.548-1.801.178-.061.365-.106.556-.134v4.369a3.208 3.208 0 0 1-.156-.146zm-1.412 1.387a3.269 3.269 0 0 1-.196-4.517 4.337 4.337 0 0 0 1.239 4.018c.267.259.567.486.893.674v.768a3.473 3.473 0 0 1-1.936-.943zm4.898 1.503c0-1.22-.51-2.323-1.333-3.122a4.547 4.547 0 0 0-.893-.674v-.768a3.474 3.474 0 0 1 1.936.943 3.269 3.269 0 0 1 .196 4.517c.061-.289.094-.589.094-.896zm-2.226.238V17.71a3.226 3.226 0 0 1 1.104 2.434 3.22 3.22 0 0 1-.547 1.801l-.008.003-.009.003-.005.002-.02.006h-.002a3.135 3.135 0 0 1-.513.12v-1.751z"/></g><g mask="url(#e)"><path fill="#D7D7D7" d="M46.278 16.252h36v2.565h-36z"/></g><g mask="url(#e)"><path fill="#282C2E" fill-rule="nonzero" d="M149.473 12.642c-.222 0-.402.212-.402.473 0 .26.18.472.402.472h9.097c.222 0 .401-.212.401-.472 0-.261-.18-.473-.401-.473h-9.097zm0 5.355c-.222 0-.402.212-.402.473 0 .26.18.472.402.472h9.097c.222 0 .401-.212.401-.472 0-.261-.18-.473-.401-.473h-9.097z"/></g></g><g><text fill="#282C2E" font-family="Avenir-Medium, Avenir" font-size="10" font-weight="400" transform="translate(15 227)"><tspan x="1.078" y="84">Suivez votre courrier</tspan></text><path fill="#D8D8D8" stroke="#D7D7D7" stroke-linecap="square" stroke-width="1.71" d="M145.56 336.693h8.55M145.5 361.827h8.55"/><path stroke="#282C2E" stroke-linecap="square" stroke-width="1.71" d="M37.83 335.838H66.9"/><g transform="translate(15.446 328.81)"><rect width="12.049" height="12.049" y=".669" fill="#2DCFB3" fill-rule="nonzero" rx="2.142"/><path stroke="#FFF" stroke-linecap="round" stroke-linejoin="round" stroke-width=".776" d="M8.702 5.355L5.727 9.372l-2.38-2.295"/><path stroke="#7B7E80" stroke-linecap="round" stroke-linejoin="round" stroke-opacity=".603" stroke-width=".5" d="M6.36 14.69v8.312"/><rect width="12.049" height="12.049" y="26.631" fill="#282C2E" fill-rule="nonzero" rx="2.142"/><text fill="#FFF" font-family="Avenir-Roman, Avenir" font-size="7.364"><tspan x="4.016" y="34.97">2</tspan></text></g><path stroke="#282C2E" stroke-linecap="square" stroke-width="1.71" d="M37.487 361.908h29.07"/></g></g></g></svg>