<?xml version="1.0" encoding="UTF-8"?>
<svg width="1032px" height="710px" viewBox="0 0 1032 710" version="1.1" xmlns="http://www.w3.org/2000/svg" xmlns:xlink="http://www.w3.org/1999/xlink">
    <!-- Generator: Sketch 62 (91390) - https://sketch.com -->
    <title>undraw_group_hangout_5gmq (2)</title>
    <desc>Created with Sketch.</desc>
    <g id="Page-1-Copy" stroke="none" stroke-width="1" fill="none" fill-rule="evenodd">
        <g id="undraw_group_hangout_5gmq-(2)" fill-rule="nonzero">
            <polygon id="Path" fill="#FFB9B9" points="850.5 632.986 851.5 656.986 851.5 677.986 877.5 677.986 877.5 632.986"></polygon>
            <polygon id="Path" fill="#FFB9B9" points="993.5 610.986 994.5 634.986 994.5 655.986 1020.5 655.986 1015.5 606.986"></polygon>
            <polygon id="Path" fill="#FFB9B9" points="967.5 221.986 959.5 284.986 933.5 359.986 921.5 316.986 936.5 289.986 933.5 232.986"></polygon>
            <path d="M842.5,215.98632 C842.5,215.98632 820.5,254.98632 823.5,258.98632 C826.5,262.98632 828.5,284.98632 828.5,284.98632 L836.82677,284.98632 L850.5,250.98632 L842.5,215.98632 Z" id="Path" fill="#E1E1E1"></path>
            <circle id="Oval" fill="#FFB9B9" cx="897" cy="77.48633" r="35"></circle>
            <path d="M884,105.48632 C884,105.48632 903,131.48632 897,144.48632 C891,157.48632 955,137.48632 955,137.48632 C955,137.48632 923,101.48632 922,89.48632 L884,105.48632 Z" id="Path" fill="#FFB9B9"></path>
            <path d="M955,221.48632 C952.75,224.86632 950.54,228.63632 948.4,232.61632 C947.39,234.50627 946.4,236.44632 945.42,238.40632 C933.8,261.82632 925,289.48632 925,289.48632 L832,286.48632 L834.89,278.00632 L848,239.48632 C825,225.48632 847,198.48632 859,173.48632 C870.02,150.52632 892.86,135.25632 896.5,132.91632 C896.83,132.71632 897,132.60632 897,132.60632 L897.42,132.53632 L914.10995,129.72632 L944.17,124.66632 L944.18,124.66632 C949.461293,125.554772 954.520884,127.456363 959.08,130.26632 C962.880673,132.664349 966.09603,135.883139 968.49,139.68637 C972.14,145.48637 973.85005,152.46637 974.16,159.93637 C975.06,181.80633 964.02,207.95629 955,221.48632 Z" id="Path" fill="#D0CDE1"></path>
            <path d="M960.5,138.98632 C960.5,138.98632 978.5,159.98632 979.5,177.98632 C980.5,195.98632 976.5,229.98632 967.5,229.98632 C958.5,229.98632 942.5,235.98632 943.5,229.98632 C944.5,223.98632 960.5,138.98632 960.5,138.98632 Z" id="Path" fill="#D0CDE1"></path>
            <path d="M943.5,176.98632 L932.5,178.98632 C928.77,149.11632 907.19,137.08632 896.5,132.91632 C896.83,132.71632 897,132.60632 897,132.60632 L897.42,132.53632 L914.10995,129.72632 C936.16,141.09631 943.5,176.98632 943.5,176.98632 Z" id="Path" fill="#2F2E41"></path>
            <path d="M1018.5,606.98632 C1017.5,612.98632 988.5,623.98632 980.5,622.98632 C972.5,621.98632 893.5,428.98632 893.5,428.98632 C893.5,428.98632 893.5,643.98632 891.5,647.98632 C889.5,651.98632 855.5,647.98632 843.5,633.98632 C831.5,619.98632 823.5,400.98632 818.5,363.98632 C813.5,326.98632 828.5,278.98632 828.5,278.98632 L834.89,278.00632 L854.5,274.98632 C854.5,274.98632 854.5,269.98632 884.5,245.98632 C914.5,221.98632 932.5,178.98632 932.5,178.98632 L935.5,172.98632 L943.5,176.98632 C952.08,161.11632 957.45,145.51632 959.08,130.26632 C962.880673,132.664349 966.09603,135.883139 968.49,139.68637 C967.73,141.78637 966.97,144.05637 966.19,146.48637 C959.45,167.47637 951.81,199.98637 944.21,231.99637 C943.97,232.99637 943.74,233.99637 943.5,234.98637 C944.223693,236.077322 944.865454,237.220459 945.42,238.40637 C947.44,242.67637 949.58,249.93637 943.5,253.98637 C934.5,259.98637 931.5,289.98637 931.5,289.98637 C948.5,304.98637 952.5,375.98637 950.5,380.98637 C948.5,385.98637 948.5,384.98637 953.5,387.98637 C958.5,390.98637 958.5,415.98637 958.5,415.98637 C958.5,415.98637 1019.5,600.98632 1018.5,606.98632 Z" id="Path" fill="#E1E1E1"></path>
            <path d="M865.5,665.98632 C865.5,665.98632 859.5,671.98632 855.5,668.98632 C851.5,665.98632 851.34324,653.22399 851.34324,653.22399 C851.34324,653.22399 805.5,648.98632 814.5,678.98632 C823.5,708.98632 886.5,712.98632 888.5,706.98632 C890.5,700.98632 881.5,662.98632 881.5,662.98632 L865.5,665.98632 Z" id="Path" fill="#2F2E41"></path>
            <path d="M1008.5,643.98632 C1008.5,643.98632 1002.5,649.98632 998.5,646.98632 C994.5,643.98632 994.34324,631.22399 994.34324,631.22399 C994.34324,631.22399 948.5,626.98632 957.5,656.98632 C966.5,686.98632 1029.5,690.98632 1031.5,684.98632 C1033.5,678.98632 1024.5,640.98632 1024.5,640.98632 L1008.5,643.98632 Z" id="Path" fill="#2F2E41"></path>
            <path d="M868.5,198.98632 L864.5,251.98632 L813.5,308.98632 C813.5,308.98632 796.5,316.98632 806.5,330.98632 C816.5,344.98632 820.5,345.98632 820.5,345.98632 L821.5,327.98632 L890.5,272.98632 L897.5,198.98632 L868.5,198.98632 Z" id="Path" fill="#FFB9B9"></path>
            <path d="M900.5,176.98632 C900.5,176.98632 904.5,131.98632 884.5,135.98632 C864.5,139.98632 863.5,158.98632 863.5,158.98632 C863.5,158.98632 854.5,204.98632 862.5,206.98632 C870.5,208.98632 897.5,212.98632 900.5,206.98632 C903.5,200.98632 900.5,176.98632 900.5,176.98632 Z" id="Path" fill="#D0CDE1"></path>
            <path d="M987.1261,106.94543 C983.23157,105.01672 974.63159,101.12426 967.30621,96.43475 C967.81989,81.17875 965.94121,67.32965 960.44196,59.98864 C957.35516,52.97985 950.87311,45.96283 945.79639,40.43676 C933.32916,26.86633 905.76129,19.29144 900.87183,26.07176 C863.8905,26.80186 859.99725,55.7896 859.99725,55.7896 C860.18964,67.91441 872.79125,68.29808 883.8302,67.85625 C882.84167,76.13371 885.47607,84.73454 893.10461,88.54881 C907.69261,95.84276 912.06897,105.32494 904.77496,111.88957 C897.48095,118.4542 884.35181,135.9597 901.85736,140.33604 C919.36291,144.71238 921.55115,153.46526 916.44531,157.11223 C911.33947,160.7592 928.11572,150.54765 928.11572,150.54765 C928.11572,150.54765 931.03326,168.05321 946.35065,163.6768 C947.957116,163.107324 949.374129,162.103393 950.44409,160.77666 C954.58093,165.32213 958.27148,168.00966 961.05292,168.024762 C976.98292,168.10893 975.07269,150.46507 975.07269,150.46507 C975.07269,150.46507 993.98083,155.77531 988.08081,153.64 C982.18079,151.50469 981.92804,142.48607 997.60535,133.55193 C1013.28266,124.61779 995.91992,111.30029 987.1261,106.94543 Z" id="Path" fill="#2F2E41"></path>
            <rect id="Rectangle" fill="#F2F2F2" x="1" y="1.00022" width="734" height="417.97222"></rect>
            <polygon id="Path" fill="#3F3D56" points="736 419.973 0 419.973 0 0 511.364 0 511.364 2 2 2 2 417.973 734 417.973 734 235.661 736 235.661"></polygon>
            <circle id="Oval" fill="#E03638" cx="34.98148" cy="32.25639" r="12.45988"></circle>
            <circle id="Oval" fill="#FFB92D" cx="67.98148" cy="32.25639" r="12.45988"></circle>
            <circle id="Oval" fill="#66CC58" cx="100.98148" cy="32.25639" r="12.45988"></circle>
            <rect id="Rectangle" fill="#3F3D56" transform="translate(369.000000, 64.986330) scale(1, -1) translate(-369.000000, -64.986330) " x="1" y="64.48633" width="736" height="1"></rect>
            <rect id="Rectangle" fill="#FFFFFF" x="41" y="131.48633" width="285" height="251"></rect>
            <rect id="Rectangle" fill="#FFFFFF" x="412" y="131.48633" width="285" height="251"></rect>
            <path d="M207.15318,185.83898 C196.27424,167.45698 174.75111,166.60025 174.75111,166.60025 C174.75111,166.60025 153.77811,163.91825 140.32397,191.91432 C127.78369,218.00897 110.47651,243.2039 137.53766,249.31246 L142.42566,234.09873 L145.45279,250.44511 C149.305777,250.722233 153.171043,250.788292 157.03125,250.64299 C186.01155,249.70734 213.61091,250.91674 212.72225,240.51739 C211.541,226.69292 217.62091,203.52619 207.15318,185.83898 Z" id="Path" fill="#2F2E41"></path>
            <circle id="Oval" fill="#A0616A" cx="176.91864" cy="210.02484" r="28.0898"></circle>
            <path d="M165.42736,228.32577 C165.42736,228.32577 178.19545,258.11798 161.17136,264.07642 L178.19548,320.25602 L207.13648,318.5536 L214.79734,299.82707 L213.09492,271.73727 L210.54131,253.01074 C210.54131,253.01074 192.66598,257.26674 194.36839,225.77215 L165.42736,228.32577 Z" id="Path" fill="#A0616A"></path>
            <path d="M158.61771,263.22521 C158.61771,263.22521 130.52791,260.6716 133.08153,281.10054 C135.63515,301.52948 138.18876,305.78554 138.18876,305.78554 L140.74238,336.42896 L125.42067,345.79223 L110.95017,345.79223 C110.95017,345.79223 66.68746,356.0067 88.81882,367.07238 C110.95018,378.13806 118.61103,358.56032 118.61103,358.56032 C118.61103,358.56032 159.46891,358.56032 162.02253,351.75067 C164.57615,344.94102 158.61771,263.22521 158.61771,263.22521 Z" id="Path" fill="#A0616A"></path>
            <path d="M213.09489,254.71315 C213.09489,254.71315 239.48228,245.34989 241.18469,265.77883 C242.8871,286.20777 242.8871,287.91019 242.8871,287.91019 L247.99434,316.85119 C247.99434,316.85119 258.20881,342.38737 258.20881,350.04819 C258.20881,357.70901 265.86967,381.54281 265.86967,381.54281 C265.86967,381.54281 276.08414,414.73981 265.01846,413.88864 C253.95278,413.03747 252.25037,378.13799 252.25037,378.13799 L229.26781,332.17286 L222.45816,304.08306 L213.09489,254.71315 Z" id="Path" fill="#A0616A"></path>
            <path d="M162.87374,259.82039 L156.06409,259.82039 L155.21288,295.57104 C155.21288,295.57104 144.14721,310.89275 157.7665,324.51204 L161.17133,346.64339 L223.30933,344.08977 L227.56533,321.10721 C227.56533,321.10721 236.07739,302.38068 224.1605,285.35656 L213.09482,250.45711 L207.13638,250.45711 C207.13638,250.45711 220.93678,301.34066 191.81474,302.38066 C167.981,303.2319 162.87374,259.82039 162.87374,259.82039 Z" id="Path" fill="#FFFFFF"></path>
            <path d="M240.78,382.48632 L151.45,382.48632 C156.16,368.76632 159.17,360.25632 159.45,359.47632 C159.454709,359.45572 159.461407,359.435626 159.47,359.41632 L161.54,352.51632 L162.4,349.65632 L163.33,346.55632 L164.58,342.38632 L219.9,340.68632 L221.45,344.16632 L226.71,356.00632 C227.168576,356.142744 227.603601,356.34847 228,356.61637 C231.93,359.19629 236.27,368.53631 240.78,382.48632 Z" id="Path" fill="#0035D4"></path>
            <path d="M225.863,333.87531 L158.61773,336.42893 C158.61773,336.42893 155.54866,359.41149 158.61773,359.41149 C159.46893,359.41149 229.26783,365.36994 228.41662,355.15549 C227.56541,344.94104 225.863,333.87531 225.863,333.87531 Z" id="Path" fill="#0035D4"></path>
            <circle id="Oval" fill="#2F2E41" cx="177.38532" cy="166.69336" r="15.56239"></circle>
            <path d="M160.18478,162.59799 C160.185582,154.637771 166.193035,147.961289 174.109,147.12308 C173.564845,147.065424 173.018051,147.036221 172.47085,147.035587 C166.712681,147.031972 161.423114,150.20814 158.72001,155.292405 C156.016906,160.376671 156.342101,166.537987 159.565391,171.309457 C162.78868,176.080927 168.383204,178.682632 174.109,178.07289 C166.193039,177.234681 160.185587,170.558205 160.18478,162.59799 L160.18478,162.59799 Z" id="Path" fill="#2F2E41"></path>
            <polygon id="Path" fill="#2F2E41" points="202.343 184.067 181.08 172.929 151.715 177.485 145.64 204.318 160.763 203.737 164.988 193.878 164.988 203.574 171.967 203.306 176.017 187.611 178.548 204.318 203.356 203.812"></polygon>
            <circle id="Oval" fill="#FFB9B9" cx="541.01639" cy="192.84998" r="28.32321"></circle>
            <path d="M529.95264,214.53493 C529.95264,214.53493 533.49304,231.35184 533.49304,233.12204 C533.49304,234.89224 550.30995,242.85814 550.30995,242.85814 L565.35665,240.20284 L570.66726,224.27103 C570.66726,224.27103 561.81626,210.99453 561.81626,205.68393 L529.95264,214.53493 Z" id="Path" fill="#FFB9B9"></path>
            <path d="M606.27,382.48632 L609.92,375.80632 L610.5,374.73632 L603.42,299.50632 L603.84,296.10632 L611.38,234.89632 L567.73,219.54632 L567.72,219.54632 C567.546131,227.457841 562.310803,234.362988 554.74,236.66632 C541.46,241.08632 532.32,226.20632 532.32,226.20632 L495.43,254.36632 L513.35,306.32632 L521.99,331.36632 C521.99,331.36632 522.87,360.57632 523.76,363.23632 C524.64,365.88632 522.87,366.77632 521.99,367.65632 C521.1,368.54632 522.87,371.19632 523.76,371.19632 C524.2,371.19632 525.08,374.51632 525.86,377.83632 C526.26,379.53632 526.63,381.23632 526.89,382.48632 L606.27,382.48632 Z" id="Path" fill-opacity="0.8" fill="#FFC107"></path>
            <path d="M675.55164,377.83594 C675.55164,377.83594 699.44935,392.88264 696.79405,402.61875 C694.13875,412.35486 666.70064,385.80184 666.70064,384.91675 C666.70064,384.03166 675.55164,377.83594 675.55164,377.83594 Z" id="Path" fill="#FFB9B9"></path>
            <path d="M606.27,382.48632 L612.93,382.48632 L610.94,375.17632 C610.610938,375.403534 610.270495,375.613807 609.92,375.80632 C607.31,377.28632 599.52,380.99632 584.81,382.48632 C575.629802,383.339978 566.390198,383.339978 557.21,382.48632 C547.001618,381.581814 536.861132,380.028677 526.85,377.83632 L525.08,377.83632 L524.09,382.48632 L606.27,382.48632 L606.27,382.48632 Z" id="Path" fill="#2F2E41"></path>
            <path d="M516.45458,170.03091 C516.45458,170.03091 525.4471,150.54713 542.68275,155.04339 C559.9184,159.53965 569.66029,166.28403 570.40967,173.02839 C571.15905,179.77275 570.03498,189.88939 570.03498,189.88939 C570.03498,189.88939 568.16154,176.02593 556.17152,179.02339 C544.1815,182.02085 525.4471,179.77277 525.4471,179.77277 L522.44959,206.75031 C522.44959,206.75031 519.0774,201.87937 515.33052,204.87687 C511.58364,207.87437 504.46457,176.02592 516.45458,170.03091 Z" id="Path" fill="#2F2E41"></path>
            <path d="M515.33,382.48632 L490.97,382.48632 L489.24,379.16632 C478.62,360.57632 478.62,334.90632 478.62,334.90632 L484.81,282.68632 C483.93,264.09632 495.43,254.36632 495.43,254.36632 L508.71,254.36632 L518.45,287.11632 L513.35,306.32632 L506.94,330.48632 L505.17,333.13632 C505.17,333.13632 506.94,335.79632 506.05,336.67632 C505.17,337.56627 504.28,341.10632 504.28,341.10632 C504.28,341.10632 506.94,358.80632 509.59995,360.57632 C512.24995,362.34632 508.70995,362.34632 508.70995,363.23632 C508.70995,364.11632 511.36995,367.65632 511.36995,367.65632 L511.36995,372.08632 L515.33,382.48632 Z" id="Path" fill="#FFCD39"></path>
            <path d="M596.33516,232.23694 L611.38187,234.89224 C611.38187,234.89224 620.23287,243.74324 623.77327,254.36444 L630.85408,286.22806 L642.36038,309.24066 C642.36038,309.24066 655.63688,322.51717 665.37299,352.61058 L679.53459,379.16358 L664.48789,388.01458 C664.48789,388.01458 622.88817,339.33406 617.57757,322.51716 L594.565,278.26215 L596.33516,232.23694 Z" id="Path" fill="#FFCD39"></path>
        </g>
    </g>
</svg>