<svg xmlns="http://www.w3.org/2000/svg" x="0px" y="0px"
     width="48" height="48"
     viewBox="0 0 172 172"
     style=" fill:#000000;"><g fill="none" fill-rule="nonzero" stroke="none" stroke-width="1" stroke-linecap="butt" stroke-linejoin="miter" stroke-miterlimit="10" stroke-dasharray="" stroke-dashoffset="0" font-family="none" font-weight="none" font-size="none" text-anchor="none" style="mix-blend-mode: normal"><path d="M0,172v-172h172v172z" fill="none"></path><g fill="#1f0ebd"><path d="M86,14.33333c-11.87517,0 -21.5,9.62483 -21.5,21.5v43c0,11.87517 9.62483,21.5 21.5,21.5c11.87517,0 21.5,-9.62483 21.5,-21.5v-43c0,-11.87517 -9.62483,-21.5 -21.5,-21.5zM86,28.66667c3.94883,0 7.16667,3.21783 7.16667,7.16667v43c0,3.94883 -3.21783,7.16667 -7.16667,7.16667c-3.94883,0 -7.16667,-3.21783 -7.16667,-7.16667v-43c0,-3.94883 3.21783,-7.16667 7.16667,-7.16667zM35.83333,78.83333c0,25.26462 18.70044,46.10479 43,49.59277v22.07389h14.33333v-22.07389c24.29956,-3.48799 43,-24.32815 43,-49.59277h-14.33333c0,19.78717 -16.04617,35.83333 -35.83333,35.83333c-19.78717,0 -35.83333,-16.04617 -35.83333,-35.83333z"></path></g></g></svg>