<svg height="512" viewBox="0 0 64 64" width="512" xmlns="http://www.w3.org/2000/svg"><rect fill="#8b5e3c" height="40" rx="2" width="40" x="12" y="12"/><g fill="#ffeb99"><rect height="6" rx="2" width="16" x="24" y="2"/><rect height="6" rx="2" width="16" x="24" y="56"/><rect height="6" rx="2" transform="matrix(0 1 -1 0 91 -27)" width="16" x="51" y="29"/><rect height="6" rx="2" transform="matrix(0 1 -1 0 37 27)" width="16" x="-3" y="29"/></g><path d="m50 11h-36a3 3 0 0 0 -3 3v36a3 3 0 0 0 3 3h36a3 3 0 0 0 3-3v-36a3 3 0 0 0 -3-3zm1 39a1 1 0 0 1 -1 1h-36a1 1 0 0 1 -1-1v-36a1 1 0 0 1 1-1h36a1 1 0 0 1 1 1z"/><path d="m26 9h12a3 3 0 0 0 3-3v-2a3 3 0 0 0 -3-3h-12a3 3 0 0 0 -3 3v2a3 3 0 0 0 3 3zm-1-5a1 1 0 0 1 1-1h12a1 1 0 0 1 1 1v2a1 1 0 0 1 -1 1h-12a1 1 0 0 1 -1-1z"/><path d="m38 55h-12a3 3 0 0 0 -3 3v2a3 3 0 0 0 3 3h12a3 3 0 0 0 3-3v-2a3 3 0 0 0 -3-3zm1 5a1 1 0 0 1 -1 1h-12a1 1 0 0 1 -1-1v-2a1 1 0 0 1 1-1h12a1 1 0 0 1 1 1z"/><path d="m60 23h-2a3 3 0 0 0 -3 3v12a3 3 0 0 0 3 3h2a3 3 0 0 0 3-3v-12a3 3 0 0 0 -3-3zm1 15a1 1 0 0 1 -1 1h-2a1 1 0 0 1 -1-1v-12a1 1 0 0 1 1-1h2a1 1 0 0 1 1 1z"/><path d="m6 23h-2a3 3 0 0 0 -3 3v12a3 3 0 0 0 3 3h2a3 3 0 0 0 3-3v-12a3 3 0 0 0 -3-3zm1 15a1 1 0 0 1 -1 1h-2a1 1 0 0 1 -1-1v-12a1 1 0 0 1 1-1h2a1 1 0 0 1 1 1z"/><path d="m23 47h-7a1 1 0 0 0 0 2h7a1 1 0 0 0 0-2z"/><path d="m27 47h-1a1 1 0 0 0 0 2h1a1 1 0 0 0 0-2z"/></svg>