<svg xmlns="http://www.w3.org/2000/svg" xmlns:xlink="http://www.w3.org/1999/xlink" viewBox="0 0 172 370"><defs><path id="a" d="M0 369.875V0h171.447v369.875z"/><path id="c" d="M0 0h174.554v33.639H0z"/><filter id="d" width="116.6%" height="186.2%" x="-8.3%" y="-37.2%" filterUnits="objectBoundingBox"><feOffset dy="2" in="SourceAlpha" result="shadowOffsetOuter1"/><feGaussianBlur in="shadowOffsetOuter1" result="shadowBlurOuter1" stdDeviation="4.5"/><feColorMatrix in="shadowBlurOuter1" values="0 0 0 0 0 0 0 0 0 0 0 0 0 0 0 0 0 0 0.1 0"/></filter></defs><g fill="none" fill-rule="evenodd"><mask id="b" fill="#fff"><use xlink:href="#a"/></mask><use fill="#FFF" xlink:href="#a"/><g mask="url(#b)"><g transform="translate(-7.048 59.707)"><path fill="#F5F5F5" fill-rule="nonzero" d="M0 89h184.312v222.684H0z"/><rect width="143" height="30" x="21" y="259" fill="#FF3465" fill-rule="nonzero" rx="2"/><text fill="#FFF" font-family="Avenir-Heavy, Avenir" font-size="7" font-weight="600"><tspan x="63" y="277">Valider mon service</tspan></text><path fill="#FFF" fill-rule="nonzero" d="M113.763 31.168L82.236 14.972a.612.612 0 0 0-.552 0L65.92 23.07a.484.484 0 0 0-.276.426v.655c0 .176.105.339.276.426l31.526 16.196c.171.088.382.088.553 0l15.764-8.097a.484.484 0 0 0 .276-.426v-.655a.484.484 0 0 0-.276-.426z"/><path fill="#C6C9CE" fill-rule="nonzero" d="M113.763 31.797l-15.764 8.097a.612.612 0 0 1-.553 0L65.92 23.698a.5.5 0 0 1-.26-.314.454.454 0 0 0-.016.111v.655c0 .176.105.339.276.426l31.526 16.196c.171.088.382.088.553 0l15.764-8.097a.484.484 0 0 0 .276-.426v-.655a.454.454 0 0 0-.017-.111.5.5 0 0 1-.26.314z"/><path fill="#4D3064" fill-rule="nonzero" d="M67.448 23.348l28.325 14.59 14.696-7.838-28.326-14.302z"/><path fill="#C6C9CE" fill-rule="nonzero" d="M82.146 15.981l28.137 14.217.186-.098-28.326-14.302-14.695 7.55.195.1z"/><g fill="#FFF" fill-rule="nonzero" opacity=".5" transform="translate(90.48 27.029)"><ellipse cx=".694" cy=".352" rx="1" ry="1"/><ellipse cx="2.517" cy="1.204" rx="1" ry="1"/><ellipse cx="4.358" cy="2.023" rx="1" ry="1"/><path stroke="#FFF" stroke-linecap="round" stroke-linejoin="round" stroke-width=".764" d="M6.89 3.832l2.12 1.087 1.058-.544-2.117-1.087-.15.077 1.209-.621-3.312.1.134 1.531z"/></g><g fill-rule="nonzero" transform="translate(74.648 19.33)"><ellipse cx="8.603" cy="4.524" fill="#FFF" opacity=".2" rx="8.592" ry="4.415"/><path fill="#FCDFB0" d="M5.304 2.857s-.692.57-.92 1.197c-.369 1.034.218 2.308 1.264 2.552 1.046.245 2.01.245 2.01.726 0 .482 0 .962.871.967h.87l5.14-2.924c-.312-.148-.497-.446-.47-.76.038-.566-.087-1.067-.737-1.223-.403-.096-1.535.15-1.42-.774.117-.924-4.75-1.085-6.608.239z"/><path fill="#AF934E" d="M9.687 7.437a.789.789 0 0 0 .304.48l3.417-2.256s.184-.403-.184-.503c-.369-.1-.485-.275-.472-.55a.86.86 0 0 0-.427-.706c-.219-.12-4.113 2.704-4.113 2.704s-.033.475.475.492c.509.016.985.08 1 .339z"/><path fill="#0A366B" d="M9.16 8.928c4.119-.136 7.445-1.763 7.963-3.84-4.119.136-7.445 1.76-7.962 3.84z"/><path fill="#F19680" d="M13.439 6.29a.667.667 0 0 0-.23-.234 1.31 1.31 0 0 0-.184-.097l-.871-.448c.26-.243.41-.562.423-.896 0-1.103-1.74-1.997-3.888-1.997-2.148 0-3.899.888-3.899 1.997s1.742 1.998 3.89 1.998a7.053 7.053 0 0 0 1.718-.208l.79.406c.108.084.233.149.368.192.112.037.228.064.346.08.108.015.218.023.327.023.689 0 1.249-.287 1.249-.64a.346.346 0 0 0-.04-.176z"/><path fill="#C9A874" d="M8.68 2.611c-1.473 0-2.741.416-3.404 1.032l.49 2.282c.226.13.465.239.714.328l1.405.31c.184.019.368.03.552.037a.79.79 0 0 0-.217-.693c-.328-.298-1.105-.491-1.08-.698.023-.206.272-1.474-.467-2.028.383.096.788.096 1.171 0 .53-.172.947-.23 1.307.07.361.3.737.505 1.359.418.622-.086 1.252-.059 1.988.526-.385-.906-1.946-1.584-3.818-1.584z"/><path fill="#FCDFB0" d="M6.263 3.044c.523.376.778.974.666 1.564-.193 1.002.107.796.383.934.276.137 1.048.27.893 1.064 0 0-2.65-.047-3.415-1.318-.764-1.271.989-2.303.989-2.303s1.05-.734 3.382-.626c1.374.057 2.64.684 3.416 1.695 0 0-1.104-.75-1.807-.612-.704.137-1.118.073-1.6-.379-.483-.452-1.224.035-1.657.035-.433 0-1.25-.054-1.25-.054z"/></g><path fill="#000" fill-rule="nonzero" d="M65.92 23.07a.484.484 0 0 0-.276.425v.655c0 .176.105.339.276.426L93.256 38.62 79.392 16.15 65.92 23.07z" opacity=".2"/><g fill-rule="nonzero"><path fill="#FFF" d="M113.763 16.425L82.236.23a.612.612 0 0 0-.552 0L65.92 8.326a.484.484 0 0 0-.276.426v.656c0 .175.105.338.276.425L97.446 26.03c.171.088.382.088.553 0l15.764-8.097a.484.484 0 0 0 .276-.426v-.655a.484.484 0 0 0-.276-.426z"/><path fill="#C6C9CE" d="M113.763 17.054l-15.764 8.097a.612.612 0 0 1-.553 0L65.92 8.955a.5.5 0 0 1-.26-.314.454.454 0 0 0-.016.111v.656c0 .175.105.338.276.425L97.446 26.03c.171.088.382.088.553 0l15.764-8.097a.484.484 0 0 0 .276-.426v-.655a.454.454 0 0 0-.017-.111.5.5 0 0 1-.26.314z"/><path fill="#FF3465" d="M67.448 8.605l28.325 14.59 14.696-7.838-28.326-14.3z"/><path fill="#C6C9CE" d="M82.146 1.238l28.137 14.217.186-.098-28.326-14.3-14.695 7.548.195.1z"/><g fill="#FFF" opacity=".5" transform="translate(90.48 12.286)"><ellipse cx=".694" cy=".352" rx="1" ry="1"/><ellipse cx="2.517" cy="1.204" rx="1" ry="1"/><ellipse cx="4.358" cy="2.023" rx="1" ry="1"/><path stroke="#FFF" stroke-linecap="round" stroke-linejoin="round" stroke-width=".764" d="M8.875 3.832L6.756 2.744l-1.058.544 2.119 1.087.149-.077-1.21.621 3.312-.1-.134-1.531z"/></g><g transform="translate(74.648)"><ellipse cx="8.603" cy="9.111" fill="#FFF" opacity=".5" rx="8.592" ry="4.415"/><path fill="#311E40" d="M9.16 13.514c4.119-.136 7.445-1.762 7.963-3.84-4.119.137-7.445 1.762-7.962 3.84z"/><path fill="#8D3E66" d="M13.229 10.767a.645.645 0 0 0-.232-.234 1.29 1.29 0 0 0-.184-.098l-.66-.34c.26-.24.411-.56.424-.894 0-1.102-1.74-1.997-3.888-1.997-2.148 0-3.899.888-3.899 1.997 0 1.11 1.742 1.999 3.89 1.999a7.084 7.084 0 0 0 1.721-.208l.577.294c.108.085.233.15.368.194a2.318 2.318 0 0 0 .674.102c.688 0 1.248-.287 1.248-.641a.355.355 0 0 0-.039-.174z"/><path fill="#000" d="M4.956 8.62l1.104 2.05c.488.221 1.012.37 1.552.444-.552-.201-1.305-.573-1.483-1.127a1.911 1.911 0 0 0-.225-1.731s2.958.457 5.307-.555l-.009-.023a6.407 6.407 0 0 0-2.526-.48c-1.754 0-3.238.6-3.72 1.422z"/><path fill="#2E1E3E" d="M5.534 8.02s2.986.408 5.444-.434c0 0 .92.424 1.126.655-.265-.597-.791-1.074-1.458-1.32-1.086-.369-2.74-.328-3.98 0-1.24.328-1.657 1.058-1.657 1.058s-1.423.89-.22 2.031c1.201 1.142 3.103 1.136 3.103 1.136s-1.539-.164-1.951-1.136c.009.01.27-1.172-.407-1.99z"/><path fill="#FFF" d="M39.39 17.506v-.655a.484.484 0 0 0-.275-.426L7.588.23a.612.612 0 0 0-.552 0L4.7 1.43l13.908 22.442 4.19 2.152c.171.088.382.088.553 0l15.764-8.097a.485.485 0 0 0 .276-.42z" opacity=".2"/></g></g><g><path fill="#FFF" fill-rule="nonzero" stroke="#D7D7D7" stroke-width=".5" d="M25.048 129.543a3.75 3.75 0 0 0-3.75 3.75v17a3.75 3.75 0 0 0 3.75 3.75h134a3.75 3.75 0 0 0 3.75-3.75v-17a3.75 3.75 0 0 0-3.75-3.75h-134z"/><g stroke="#282C2E" stroke-linecap="round" stroke-linejoin="round" stroke-width=".8"><path d="M152.974 141.018l-2.083-1.878a.524.524 0 0 0-.686 0l-2.084 1.878M152.974 143.568l-2.083 1.878a.524.524 0 0 1-.686 0l-2.084-1.878"/></g><text fill="#282C2E" font-family="Avenir-Heavy, Avenir" font-size="7" font-weight="600" transform="translate(21 113)"><tspan x="11.048" y="31.293">01 77 91 00 21</tspan></text><text fill="#FF3465" font-family="OpenSans-Regular, Open Sans" font-size="8" transform="translate(21 113)"><tspan x="8.2" y="9.6">choisissez votre numéro</tspan></text></g><g><path fill="#FFF" fill-rule="nonzero" stroke="#D7D7D7" stroke-width=".5" d="M25.048 190.543a3.75 3.75 0 0 0-3.75 3.75v17a3.75 3.75 0 0 0 3.75 3.75h134a3.75 3.75 0 0 0 3.75-3.75v-17a3.75 3.75 0 0 0-3.75-3.75h-134z"/><g stroke="#282C2E" stroke-linecap="round" stroke-linejoin="round" stroke-width=".8"><path d="M152.974 202.018l-2.083-1.878a.524.524 0 0 0-.686 0l-2.084 1.878M152.974 204.568l-2.083 1.878a.524.524 0 0 1-.686 0l-2.084-1.878"/></g><text fill="#282C2E" font-family="Avenir-Heavy, Avenir" font-size="7" font-weight="600" transform="translate(21 174)"><tspan x="11.048" y="31.293">01 77 91 00 22</tspan></text><text fill="#FF3465" font-family="OpenSans-Regular, Open Sans" font-size="8" transform="translate(21 174)"><tspan x="8.2" y="9.6">choisissez votre numéro</tspan></text><text fill="#7B7E80" font-family="OpenSans-Italic, Open Sans" font-size="8" font-style="italic" transform="translate(21 174)"><tspan x="3" y="53">numéro renseigné dans votre compte</tspan></text></g><g fill="#282C2E" font-family="Avenir-Heavy, Avenir" font-size="10" font-weight="600"><text transform="translate(32 60)"><tspan x="0" y="10">Redirection Téléphonique</tspan></text></g></g><g transform="translate(-1.722 .596)"><mask id="e" fill="#fff"><use xlink:href="#c"/></mask><g fill-rule="nonzero"><use fill="#000" filter="url(#d)" xlink:href="#c"/><use fill="#FFF" xlink:href="#c"/></g><g mask="url(#e)"><path fill="#1576E1" d="M-1.8-.3h36.639v36.639H-1.8z"/><path fill="#FFF" d="M18.3 11.886a4.216 4.216 0 0 0-2.993 1.242 4.229 4.229 0 0 0-1.24 2.997c0 1.17.474 2.23 1.24 2.997a4.218 4.218 0 0 0 2.517 1.215v2.835h.53l.05-.001H18.413l.102-.004h.005l.102-.007h.003l.014-.001.037-.004h.005l.046-.004.008-.001.032-.004.018-.002h.008l.026-.004.02-.002h.005l.025-.004.022-.003h.004l.025-.004.024-.004h.002l.025-.004.025-.004.025-.005.025-.004h.005l.045-.01h.006l.044-.009.006-.001.009-.002.035-.007.008-.002.004-.001.039-.009.015-.003.04-.01h.004l.013-.004.025-.006.005-.002.016-.004h.003l.024-.007.015-.004.01-.002.033-.01.008-.002.007-.002.024-.007h.003l.021-.007.024-.007.005-.002.033-.01.017-.005.034-.012.007-.002.023-.008.024-.008.024-.008h.002l.021-.008.023-.009.02-.007.004-.002.023-.008.019-.008.004-.001.024-.01.023-.008.023-.01a4.24 4.24 0 0 0 1.402-.932 4.228 4.228 0 0 0 1.24-2.997c0-1.17-.474-2.23-1.24-2.997a4.218 4.218 0 0 0-2.518-1.215v-2.835H18.3zm-.709 5.315a3.226 3.226 0 0 1-.948-2.288c0-.667.202-1.286.548-1.801.178-.061.365-.106.556-.134v4.369a3.208 3.208 0 0 1-.156-.146zm-1.412 1.387a3.269 3.269 0 0 1-.196-4.517 4.337 4.337 0 0 0 1.239 4.018c.267.259.567.486.893.674v.768a3.473 3.473 0 0 1-1.936-.943zm4.898 1.503c0-1.22-.51-2.323-1.333-3.122a4.547 4.547 0 0 0-.893-.674v-.768a3.474 3.474 0 0 1 1.936.943 3.269 3.269 0 0 1 .196 4.517c.061-.289.094-.589.094-.896zm-2.226.238V17.71a3.226 3.226 0 0 1 1.104 2.434 3.22 3.22 0 0 1-.547 1.801l-.008.003-.009.003-.005.002-.02.006h-.002a3.135 3.135 0 0 1-.513.12v-1.751z"/></g><g mask="url(#e)"><path fill="#D7D7D7" d="M46.278 16.252h36v2.565h-36z"/></g><g mask="url(#e)"><path fill="#282C2E" fill-rule="nonzero" d="M149.473 12.642c-.222 0-.402.212-.402.473 0 .26.18.472.402.472h9.097c.222 0 .401-.212.401-.472 0-.261-.18-.473-.401-.473h-9.097zm0 5.355c-.222 0-.402.212-.402.473 0 .26.18.472.402.472h9.097c.222 0 .401-.212.401-.472 0-.261-.18-.473-.401-.473h-9.097z"/></g></g></g></g></svg>