<svg height="512" viewBox="0 0 64 64" width="512" xmlns="http://www.w3.org/2000/svg"><g id="Contract"><path d="m10 51 10 10v-10z" fill="#9bc9ff"/><path d="m60.954 29.732-.155-.774-6.8 6.8-8.757 8.758a3 3 0 0 0 0 4.242 3 3 0 0 0 4.242 0l4.516-4.515 3.672-3.672a12 12 0 0 0 3.282-10.839z" fill="#9bc9ff"/><path d="m27.379 16.914c.3.733-.881 2.483-.329 3.036s2.3-.633 3.036-.329c.708.293 1.1 2.379 1.914 2.379s1.206-2.086 1.914-2.379c.733-.3 2.483.881 3.036.329s-.633-2.3-.329-3.036c.293-.708 2.379-1.1 2.379-1.914s-2.086-1.206-2.379-1.914c-.3-.733.881-2.483.329-3.036s-2.3.633-3.036.329c-.708-.293-1.1-2.379-1.914-2.379s-1.206 2.086-1.914 2.379c-.733.3-2.483-.881-3.036-.329s.633 2.3.329 3.036c-.293.708-2.379 1.1-2.379 1.914s2.086 1.206 2.379 1.914zm4.621-3.914a2 2 0 1 1 -2 2 2 2 0 0 1 2-2z" fill="#9bc9ff"/><g fill="#1e81ce"><path d="m61.935 29.535-.156-.773a1 1 0 0 0 -1.687-.511l-5.092 5.092v-30.343a1 1 0 0 0 -1-1h-44a1 1 0 0 0 -1 1v48a1 1 0 0 0 .293.707l10 10a1 1 0 0 0 .707.293h34a1 1 0 0 0 1-1v-16.343l3.379-3.379a12.981 12.981 0 0 0 3.556-11.743zm-42.935 29.051-6.586-6.586h6.586zm34 1.414h-32v-9a1 1 0 0 0 -1-1h-9v-46h42v31.343l-8.465 8.465a4 4 0 0 0 -.606 4.849l-3.636 3.636a1 1 0 1 0 1.414 1.414l3.636-3.636a3.965 3.965 0 0 0 4.849-.607l2.808-2.807zm-4.222-11.95a1.994 1.994 0 0 1 -1.924.51l10.41-10.409a1 1 0 0 0 -1.414-1.414l-10.411 10.41a2 2 0 0 1 .51-1.925l14.188-14.188a10.98 10.98 0 0 1 -3.172 8.83z"/><path d="m37 52h-10a1 1 0 0 0 0 2h10a1 1 0 0 0 0-2z"/><path d="m25.782 16.968a7.06 7.06 0 0 1 .637.352 6.908 6.908 0 0 1 -.207.739c-.267.833-.6 1.87.131 2.6s1.764.4 2.6.131l.723-.23a6.473 6.473 0 0 1 .369.66c.403.792.908 1.78 1.965 1.78s1.562-.988 1.968-1.782a7.06 7.06 0 0 1 .352-.637 6.844 6.844 0 0 1 .739.207c.834.266 1.871.6 2.6-.131s.4-1.765.131-2.6c-.073-.23-.189-.595-.229-.724a6.474 6.474 0 0 1 .66-.368c.791-.403 1.779-.908 1.779-1.965s-.988-1.562-1.782-1.968a7.06 7.06 0 0 1 -.637-.352 6.908 6.908 0 0 1 .207-.739c.267-.833.6-1.87-.131-2.6s-1.764-.4-2.6-.131l-.723.23a6.473 6.473 0 0 1 -.369-.66c-.403-.792-.908-1.78-1.965-1.78s-1.562.988-1.968 1.782a7.06 7.06 0 0 1 -.352.637 6.844 6.844 0 0 1 -.739-.207c-.834-.267-1.87-.6-2.6.131s-.4 1.765-.131 2.6c.073.23.189.6.229.724a6.474 6.474 0 0 1 -.66.368c-.791.403-1.779.908-1.779 1.965s.988 1.562 1.782 1.968zm.91-2.155a3.054 3.054 0 0 0 1.608-1.343 3.129 3.129 0 0 0 -.186-2.138c-.028-.089-.063-.2-.1-.312.112.033.222.069.312.1a3.124 3.124 0 0 0 2.136.186 3.045 3.045 0 0 0 1.343-1.611c.053-.1.12-.232.188-.358.068.126.135.256.187.358a3.051 3.051 0 0 0 1.351 1.605 3.132 3.132 0 0 0 2.137-.186c.09-.028.2-.064.312-.1-.033.112-.068.223-.1.313a3.129 3.129 0 0 0 -.186 2.136 3.051 3.051 0 0 0 1.611 1.344c.1.052.232.119.357.187-.125.068-.256.135-.357.187a3.054 3.054 0 0 0 -1.605 1.349 3.129 3.129 0 0 0 .186 2.138c.028.089.063.2.1.312-.112-.033-.222-.069-.312-.1a3.135 3.135 0 0 0 -2.136-.186 3.051 3.051 0 0 0 -1.344 1.611c-.052.1-.119.232-.187.358-.068-.126-.135-.256-.188-.358a3.045 3.045 0 0 0 -1.35-1.605 1.751 1.751 0 0 0 -.677-.128 4.96 4.96 0 0 0 -1.46.314c-.09.028-.2.064-.312.1.033-.112.068-.223.1-.313a3.129 3.129 0 0 0 .186-2.136 3.051 3.051 0 0 0 -1.611-1.344c-.1-.052-.232-.119-.357-.187.122-.074.253-.141.354-.193z"/><path d="m32 18a3 3 0 1 0 -3-3 3 3 0 0 0 3 3zm0-4a1 1 0 1 1 -1 1 1 1 0 0 1 1-1z"/><path d="m18 31h28a1 1 0 0 0 0-2h-28a1 1 0 0 0 0 2z"/><path d="m26 25a1 1 0 0 0 0 2h12a1 1 0 0 0 0-2z"/><path d="m47 34a1 1 0 0 0 -1-1h-28a1 1 0 0 0 0 2h28a1 1 0 0 0 1-1z"/><path d="m40 37h-12a1 1 0 0 0 0 2h12a1 1 0 0 0 0-2z"/><path d="m40 41h-12a1 1 0 0 0 0 2h12a1 1 0 0 0 0-2z"/><path d="m40 45h-12a1 1 0 0 0 0 2h12a1 1 0 0 0 0-2z"/><path d="m24 37h-1a1 1 0 0 0 0 2h1a1 1 0 0 0 0-2z"/><path d="m24 41h-1a1 1 0 0 0 0 2h1a1 1 0 0 0 0-2z"/><path d="m24 45h-1a1 1 0 0 0 0 2h1a1 1 0 0 0 0-2z"/></g></g></svg>